<svg width="800" height="600" xmlns="http://www.w3.org/2000/svg" stroke="null">
 <g stroke="null">
  <title stroke="null">Layer 1</title>
  <path fill="none" stroke-width="10" id="svg_14" d="m294,44c0,2.07759 0,4.15517 0,7.27155c0,4.15517 0,7.27155 0,11.42672c0,4.15517 0,6.23276 0,10.38793c0,2.07759 1.4588,5.9143 2,7.27155c0.76538,1.91944 0,4.15517 0,5.19397c0,4.15517 1.49622,7.17576 2,11.42672c0.12219,1.03101 0,7.27155 0,11.42672c0,3.11638 0.98163,6.97239 2,12.46552c0.94553,5.10024 1.49622,8.21456 2,12.46552c0.36655,3.09303 -0.4595,5.24954 0,7.27155c0.51373,2.26068 1,4.15517 1,6.23276c0,2.07759 0,3.11638 1,7.27155c1,4.15517 1,6.23276 1,9.34914c0,2.07759 0.08075,7.25548 1,12.46552c1.09662,6.2152 1,11.42672 1,17.65948c0,5.19397 -0.39417,9.36936 0,13.50431c0.50244,5.27105 2,10.38793 2,15.5819c0,3.11638 0,5.19397 0,9.34914c0,3.11638 0,7.27155 0,12.46552c0,4.15517 0,9.34914 0,13.50431c0,4.15517 0,7.27155 0,11.42672c0,5.19397 0,10.38793 0,11.42672l0,3.11638l0,1.03879" stroke="#000"/>
  <g id="svg_8">
   <path d="m664,301c0,-4 0.49268,-10.02432 0,-15c-0.50244,-5.07422 -2.99658,-16.87592 -4,-29c-0.3299,-3.98636 -1.27905,-10.19113 -4,-19.00002c-1.58929,-5.14529 -3.23773,-9.93097 -4,-13c-1.46625,-5.9034 -6,-15 -8,-18.99998c-2,-4 -4.79626,-5.16124 -8,-9c-2.86554,-3.43349 -7.72961,-10.22885 -12,-15c-1.88635,-2.10754 -4.69324,-5.1687 -7,-9c-4.43713,-7.36966 -7.29871,-8.82108 -9,-12c-1.41559,-2.64502 -1.55487,-5.77191 -11,-12c-4.49573,-2.96448 -8.92035,-4.16797 -13,-6c-4.91254,-2.20607 -11.3869,-4.9176 -14,-6c-2.77167,-1.14806 -5.90631,-1.10341 -7,-2c-2.78833,-2.28587 -8.86829,-3.28859 -13,-5c-2.92157,-1.21014 -8.01935,-0.7226 -10,-1c-7.20972,-1.00977 -8.54913,-2.95517 -12,-4c-0.95709,-0.28978 -3,0 -5,0c-3,0 -4.82373,-0.48625 -7,-1c-2.91974,-0.68925 -7,0 -16,0c-4,0 -9.03876,-0.48055 -12,0c-3.12146,0.50655 -8.21167,0.71413 -11,3c-1.09369,0.89659 -5,2 -7,2c-2,0 -5.88135,1.2935 -13,4c-2.95587,1.12381 -5.06335,1.77415 -9,3c-8.15765,2.54022 -10.76935,4.30322 -12,5c-3.58795,2.03145 -6.62,1.67499 -12,5c-1.203,0.7435 -6.06598,2.87766 -8,4c-3.11847,1.80972 -8.7027,3.54137 -12,5c-3.77063,1.66801 -6.10266,1.36754 -8,2c-4.74341,1.58115 -5.41885,3.41885 -7,5c-1.58115,1.58115 -2.32367,3.52016 -4,5c-2.703,2.38617 -4.47427,6.14935 -5,7c-1.17557,1.90211 -3.10339,1.90633 -4,3c-2.28589,2.78833 -4.07611,3.61731 -5,4c-2.61313,1.0824 -4.64886,2.19577 -7,6c-0.52573,0.85065 -2.07611,1.61731 -3,2c-2.61313,1.0824 -3.33749,4.31001 -5,7c-0.7435,1.203 -2.62021,1.6689 -4,5c-1.95132,4.71088 -1.5405,7.05348 -2,8.99998c-0.51373,2.17625 -2,4 -2,7c0,2 -0.23462,4.15224 -1,6c-1.0824,2.61313 -2,2 -3,4c-1,2 -1.22421,3.90283 -2,6c-1.43048,3.867 -2,4 -2,6c0,2 -1.34619,4.70546 -3,7c-1.30746,1.814 -1.14935,3.47429 -2,4.00002c-1.9021,1.17557 -1.07611,2.61731 -2,3c-1.30655,0.5412 -1,2 -2,3c-1,1 -1.29291,1.29291 -2,2c-0.70709,0.70709 -0.41528,1.18875 -1,2c-1.84903,2.56537 -4,2 -4,3c0,0 -0.29291,1.29291 -1,2c-0.70709,0.70709 -2,1 -3,2c0,0 -1.4588,0.69345 -2,2c-0.38269,0.92389 -1.29291,1.29291 -2,2c-1.41422,1.41422 0,2 0,2c0,1 -0.4588,1.69345 -1,3c-0.38269,0.92389 -1.48627,0.82376 -2,3c-0.22977,0.97324 0,2 -1,2c0,0 0,1 0,2c0,1 0,2 0,3c0,1 0,2 0,3c0,0 0,2 0,3c0,1 0,1 0,2c0,1 0,2 0,3c0,1 0,2 0,3c0,1 0,1 0,3c0,1 0,2 0,2l0,1" id="svg_4" stroke-width="10" stroke="#000" fill="none"/>
   <path d="m665,296c0,0 -2,0 -5,0c-3,0 -6,0 -8,0c-4,0 -8,0 -10,0c-1,0 -2,0 -3,0c-3,0 -4,0 -5,0c-1,0 -2,0 -2,0c-2,0 -3,0 -4,0c-1,0 -2,0 -4,0c0,0 -1,0 -2,0c-1,0 -2,0 -4,0c-2,0 -2,0 -5,0c-1,0 -5,-1 -5,-1c-3,0 -4,0 -5,0c-2,0 -3,0 -4,0c-2,0 -3,0 -3,0c-2,0 -4,0 -4,0c-1,0 -2,0 -3,0c-1,0 -2,0 -4,0c-1,0 -2,0 -6,0c-2,0 -2.69342,-0.4588 -4,-1c-1.84778,-0.76538 -3,0 -4,0c-1,0 -2,0 -3,0c-1,0 -2,0 -4,0c0,0 -1,0 -3,0c-1,0 -2,0 -3,0c-4,0 -5,0 -6,0c-1,0 -3,0 -4,0c-3,0 -5,1 -8,1c0,0 -2,0 -3,0c-2,0 -4,0 -5,1c0,0 -4,0 -4,0c-1,0 -3,0 -4,0c-2,0 -3,0 -4,0c-1,0 -1.92578,-0.49756 -7,-1c-0.99512,-0.09854 -3,0 -5,0c-1,0 -7,-1 -8,-1c-1,0 -4,0 -5,0c-2,0 -3,0 -4,0c-1,0 -3,0 -3,0c-1,-1 -2,-1 -3,-1c-1,0 -2,0 -4,0c-1,0 -2,0 -4,0c-4,0 -6,0 -8,0c-1,0 -3,0 -4,0c-5,0 -6,0 -7,0c-2,0 -3,0 -4,0c-1,0 -2,0 -2,0c-2,0 -4,0 -4,0c-2,0 -3,0 -4,0c0,0 -1,0 -2,0c-2,0 -2,0 -4,0c-1,0 -2,0 -2,0c-1,0 -2,0 -4,0c-1,0 -3,0 -4,0c0,0 -1,0 -2,0c-1,0 -2,1 -3,1c-1,0 -2,0 -4,0c-1,0 -2,0 -3,0c0,0 -0.69342,0.4588 -2,1c-1.84778,0.76538 -2,0 -4,0c-1,0 -2,0 -3,0c-3,0 -3,0 -4,0c-2,0 -3,0 -4,0c-2,0 -3,0 -4,0c-1,0 -2,0 -3,0c0,0 -1,0 -2,0c-1,0 -2,0 -2,0c-1,0 -2.07611,-0.38269 -3,0c-1.30655,0.5412 -1,1 -2,1c-1,0 -2,0 -3,0c0,0 -1.02676,-0.22977 -2,0c-2.17624,0.51373 -2,1 -3,1c-1,0 -2,0 -3,0c-1,0 -2,0 -4,0c0,0 -1,0 -2,0c-1,0 -2,0 -3,0c-1,0 -2,0 -3,0c-2,0 -3,0 -4,0c0,0 -2,0 -3,0c-1,0 -1,0 -2,0c-1,0 -2,0 -3,0c-2,0 -2.75311,0.3327 -4,1c-4.49567,2.40601 -6.02582,0.67963 -8,1c-3.12143,0.50653 -4,1 -4,1c-2,1 -3,1 -4,1c-1,0 -2,0 -4,0c0,0 -2,0 -3,0c-1,0 -3,0 -4,0c-1,0 -1.29291,-0.70709 -2,0c-0.70709,0.70709 -1,1 -2,1c-1,0 -1,1 -1,1c-2,0 -3,0 -4,0c0,0 -1,0 -2,0c-2,0 -3,0 -4,0c-4,0 -6,0 -6,0c-3,0 -4.69345,0.4588 -6,1c-1.84775,0.76538 -3,0 -4,0c-2,0 -2,0 -3,0c-2,0 -2.29291,0.29291 -3,1c-1.41422,1.41422 -3,0 -4,0c-1,0 -2,0 -4,0c-1,0 -4,0 -5,0c-2,0 -3,0 -4,0c-3,0 -4,0 -5,0c-2,0 -3,0 -4,0c-2,0 -2,0 -3,0c-1,0 -2,0 -3,0c-2,0 -4,0 -6,0c-2,0 -3,0 -6,0c-1,0 -3,0 -6,0c-2,0 -5,0 -7,0c-2,0 -3,0 -5,0c-2,0 -6,0 -6,0c-2,0 -3,0 -4,0c-4,0 -6,0 -8,0c-1,0 -4,0 -6,0c-2,0 -2,0 -5,0c-1,0 -2,0 -5,0c-2,0 -3,0 -4,0c-1,0 -4,0 -6,0c-1,0 -2,0 -2,0c-4,0 -5,0 -7,0c-1,0 -1,0 -4,0c-1,0 -3,0 -4,0c-1,0 -1,0 -5,0l-1,0" id="svg_6" stroke-width="10" stroke="#000" fill="none"/>
  </g>
  <path d="m401,39c-1,0 -0.29291,0.29289 -1,1c-0.70709,0.70711 -2,0 -3,0c-1,0 -1,1 -1,1c1,0 2,0 3,0c1,0 1,1 2,1c2,0 3,0 3,2c0,0 1,0 2,0c2,0 2.4588,0.30656 3,-1c0.38269,-0.92388 -0.70709,-2.29289 0,-3c0.70709,-0.70711 1,0 1,-1c0,-1 0,-2 -1,-2c-1,0 -1,-1 -2,-1c-1,0 -2,0 -3,0c0,0 -1,0 -2,0c-1,0 -2,0 -1,0c1,0 1,0 2,0c1,0 1,-1 1,-1c1,0 2,0 2,-1c0,-1 2,-1 2,-1c-1,0 -2.07611,-0.38268 -3,0c-1.30655,0.54119 -1,1 -2,1c-1,0 -2.29291,-0.70711 -3,0c-0.70709,0.70711 0,1 -1,1c-1,0 -3,0 -3,0c-1,0 -2,0 -2,1c0,0 0.61731,0.07612 1,1c0.5412,1.30656 2.4588,0.69344 3,2c0.38269,0.92388 0.29291,0.29289 1,1c0.70709,0.70711 0,2 0,4l0,0" id="svg_9" stroke-width="10" stroke="#000" fill="none"/>
 </g>

</svg>