<svg width="800" height="600" xmlns="http://www.w3.org/2000/svg" stroke="null">
 <g stroke="null">
  <title stroke="null">Layer 1</title>
  <path fill="none" stroke="#000" id="svg_1" d="m-150,108c0,-1 0,-2 0,-5l4,-6l6,-2"/>
  <path stroke="#000" d="m630.56301,47c1.01612,0 1.78082,0.01095 2.03225,3.21449c0.5098,6.49545 2.03225,12.85796 2.03225,19.28694c0,7.50048 -0.62075,17.18408 0,22.50143c0.51191,4.3848 2.03225,7.50048 2.03225,11.78646c0,6.42898 0,11.78646 0,16.07245c0,4.28599 0,8.57197 0,11.78646c0,4.28599 2.03225,12.85796 2.03225,16.07245c0,3.21449 0,5.35748 0,9.64347c0,4.28599 0,7.50048 0,11.78646c0,3.21449 1.52245,8.50549 2.03225,15.00095c0.75428,9.61061 0.98822,15.69474 2.03225,20.35844c0.46694,2.08567 0,5.35748 0,10.71497c0,6.42898 0,12.85796 0,20.35844c0,6.42898 1.65343,11.79889 2.03225,18.21544c0.50905,8.62199 3.0297,17.90686 4.0645,23.57293c0.57647,3.15648 -1.15294,7.61649 0,13.92946c1.03479,5.66607 1.33186,9.72947 2.03225,12.85796c0.52202,2.33183 1.38117,5.41281 2.03225,9.64347c0.5147,3.3446 2.03225,8.57197 2.03225,10.71497c0,2.14299 0,4.28599 0,5.35748c0,2.14299 1.01612,4.28599 1.01612,5.35748c0,2.14299 0,3.21449 0,4.28599c0,3.21449 1.51023,5.16864 2.03225,7.50048c0.23344,1.04282 0,3.21449 0,4.28599c0,1.0715 0,3.21449 0,4.28599c0,2.14299 0,3.21449 0,4.28599c0,2.14299 0,4.28599 0,5.35748c0,3.21449 -0.52853,4.6328 -2.03225,6.42898c-2.42464,2.89626 -6.92253,4.50759 -9.14512,6.42898c-2.83329,2.44932 -6.66806,5.96354 -9.14512,7.50048c-6.37571,3.95592 -13.32379,5.94365 -18.29023,7.50048c-5.24516,1.6442 -10.93059,4.27196 -17.27411,5.35748c-9.02703,1.54472 -19.32936,1.45938 -28.45147,2.14299c-7.16701,0.53709 -14.24087,1.50248 -26.41922,2.14299c-30.59771,1.60924 -51.82232,3.21449 -71.12867,3.21449c-15.24186,0 -25.4031,0 -33.53209,0c-6.09674,0 -13.20961,0 -20.32248,0c-17.27411,0 -51.82232,0 -90.43503,0c-36.58046,0 -47.05108,1.64017 -50.80619,0c-1.32762,-0.57989 -5.18534,-0.47189 -12.19349,-2.14299c-16.61386,-3.96164 -36.55857,-11.93623 -55.88681,-15.00095c-14.21042,-2.25322 -19.38605,-2.98932 -22.35473,-4.28599c-4.19833,-1.83379 -10.29537,-5.0953 -14.22573,-7.50048c-3.16877,-1.93911 -3.35016,-3.87221 -6.09674,-6.42898c-1.70336,-1.58563 -2.79974,-3.35595 -5.08062,-7.50048c-1.8389,-3.34143 -4.28032,-7.39404 -6.09674,-11.78646c-3.47026,-8.3917 -4.56873,-12.75914 -5.08062,-17.14395c-0.12415,-1.06345 0,-3.21449 0,-4.28599l0,-1.0715" id="svg_25" stroke-width="10" fill="none"/>
  <path d="m395,210c-1,0 -2,0 -4,0c-2,0 -1.58578,0.58578 -3,2c-0.70709,0.70711 -2.07611,0.61731 -3,1c-1.30655,0.5412 -1,2 -1,4c0,1 0,2 0,3c0,1 0,2 0,3c0,1 0,2 0,3c0,2 -0.16019,3.01291 0,4c0.50653,3.12144 1,4 2,5c1,1 1.4588,1.69344 2,3c0.38269,0.92387 1,1 2,1c1,0 4,1 12,3c4,1 5.0535,0.5405 7,1c2.17624,0.51375 7,2 9,2c1,0 1.03983,1.08398 -1,2c-4.91257,2.20607 -8.0979,3.82443 -10,5c-0.85065,0.52573 -2.21167,0.71413 -5,3c-2.18735,1.7932 -3.70547,3.34619 -6,5c-3.62799,2.6149 -6.61731,3.07613 -7,4c-0.5412,1.30656 -2.07611,0.61731 -3,1c-1.30655,0.5412 -1,2 -2,3l-1,0l-1,0" id="svg_27" stroke-width="10" stroke="#000" fill="none"/>
 </g>

</svg>