<svg width="1012" height="506" xmlns="http://www.w3.org/2000/svg">
 <g id="Layer_1">
  <title>Layer 1</title>
  <path stroke-width="10" d="m634,127.4c0,1.00001 0,2.00001 0,6.00001c0,1 0,2 0,3c0,1 0,1 0,3c0,1 0,2 0,2c0,1 0.76538,2.15224 0,4c-0.5412,1.30656 -1,2 -1,3c0,1 0,1 0,2c0,1 0,2 0,3c0,1 0,2 0,3c0,1 0,2 0,3c0,1 0,2 0,2c0,2 0,3 0,4c0,1 0,2 0,3c0,2 0,3 0,4c0,1 0.48627,1.82375 1,4c0.22974,0.97325 0,2 0,3c0,1 0,2 0,2c0,1 0,2 0,3c0,1 0,1 0,2c0,1 0,2 0,3c0,0 0,1 0,2c0,1 0,2 0,2c0,1 0,2 0,3c0,1 0,1 0,3c0,1 0,2 0,2c0,1 0,2 0,4c0,0 0,2 0,3c0,1 0,1 0,2c0,1 0,2 0,3c0,0 0,1 0,2c0,1 0,2 0,2c0,1 0,2 0,3c0,1 0,2 0,3c0,1 0,2 0,2c0,1 0,4 0,4c0,1 -1.41418,2.58578 0,4c0.70709,0.70711 1,1 1,2c0,2 0,3 0,4c0,2 0,2 0,3c0,1 0,3 0,4c0,1 0,2 0,3c0,0 0,1 0,2c0,2 0,2 0,3c0,1 0,1.99998 0,2.99998c0,1 0,3 0,4c0,0 0,1 0,2c0,2 0,2 0,4c0,1 0,2 0,3c0,1 -1,3 -1,3c0,1 0,4 0,4c0,1 0,3 0,4c0,0 0,2 0,3c0,1 0,1 0,2c0,1 0,3 0,3c0,2 -1,2 -1,3c0,3 -1,5 -1,6c0,2 0,3 0,4c0,2 -0.4588,2.69345 -1,4c-1.14807,2.77164 -1,3 -1,6c0,1 -0.85193,1.22836 -2,4c-0.5412,1.30655 -2,2 -2,2c0,1 -1.11835,2.52814 -2,3c-3.17889,1.70129 -2.8244,2.0979 -4,4c-1.05145,1.70129 -2,4 -2,4c-3,3 -4,3 -4,4c0,1 0.9021,2.82443 -1,4c-0.85065,0.52573 -0.29291,0.29291 -1,1c-0.70709,0.70709 -0.58582,1.58578 -2,3c-0.70709,0.70709 -2,1 -3,2c-1,1 -1.07611,1.61731 -2,2c-1.30658,0.5412 -2.29291,1.29291 -3,2c-0.70709,0.70709 -1,2 -2,2c-1,0 -1.82373,1.48627 -4,2c-0.97327,0.22977 -1.0979,0.82443 -3,2c-2.55194,1.57718 -4.82373,1.48627 -7,2c-1.94647,0.4595 -3,0 -4,1c0,0 -2,1 -3,1c-1,0 -1.07611,-0.38269 -2,0c-1.30658,0.5412 -3,2 -3,2c-2,0 -3.82373,1.48627 -6,2c-1.94647,0.4595 -3,0 -5,0c-2,0 -4.69342,0.4588 -6,1c-2.77167,1.14804 -3,0 -7,0c-2,0 -3,0 -4,0c0,0 -1,0 -2,0c-1,0 -2,0 -2,0c-1,0 -1,-1 -2,-1c-2,0 -1.69257,-0.186 -3,-2c-0.8269,-1.14728 -1.69342,-1.4588 -3,-2c-0.92389,-0.38269 -2.29291,-0.29291 -3,-1c-0.70709,-0.70709 -1,-2 -2,-3c-1,-1 -2.71411,-3.21167 -5,-6c-0.89661,-1.09366 -1,-2 -2,-3c-1,-1 -2,-2 -3,-3c-1,-1 -1,-2 -1,-3c0,-1 -2.29291,-1.29291 -3,-2c-0.70709,-0.70709 -1.29291,-2.29291 -2,-3c-0.70709,-0.70709 -0.29291,-1.29291 -1,-2c-0.70709,-0.70709 -1,-1 -2,-2c0,0 -2.29291,-1.29291 -3,-2c-0.70709,-0.70709 0,-2 -1,-2c0,0 0,-2 0,-4c0,0 0,-2 0,-3c0,-1 0,-2 0,-3c0,-1 0,-2 0,-3c0,-1 0,-3 0,-4c0,-1 0,-2 0,-3c0,-1 0,-2 0,-3c0,-1 0,-1 0,-2c0,-1 0,-2 0,-3c0,0 1,-1 1,-2c0,-1 0.29291,-1.29291 1,-2c1.41422,-1.41422 1,-2 1,-3c0,-1 0.29291,-0.29291 1,-1c0.70709,-0.70709 0,-2 0,-4l0,0l0,-1" id="svg_1" stroke="#000" fill="none"/>
 </g>
</svg>