<svg width="1012" height="506" xmlns="http://www.w3.org/2000/svg">
 <g id="Layer_1">
  <title>Layer 1</title>
  <path stroke-width="10" d="m676,217.40001c-2,0 -3,0 -5,0c-3,0 -4.13373,0.14876 -9,-1c-2.17627,-0.51375 -4,-2 -4,-2c-2,-1 -4,-1 -4,-1c-1,-1 -2,-1 -2,-2c0,-1 -1,-2 -1,-2c-1,-1 0.41418,-2.58578 -1,-4c-0.70709,-0.70711 -1,0 -1,-1c0,-1 -1,-1 -1,-2c0,-1 -0.29291,-2.29289 -1,-3c-0.70709,-0.70711 0,-2 0,-2c-1,0 -1,-1 -1,-2c0,-1 0,-2 0,-2c0,-1 0,-2 0,-3c0,-1 0,-1 0,-2c0,-2 0,-3 0,-3c0,-2 0,-4 0,-6c0,-1 -1.14807,-2.22836 0,-5c0.5412,-1.30656 2,-4 3,-5c0,0 0.61731,-2.07613 1,-3c0.5412,-1.30656 1.29291,-1.29289 2,-2c0.70709,-0.70711 1.47424,-2.14935 2,-3c1.1756,-1.90211 4.05353,-2.5405 6,-3c2.17627,-0.51375 2.87854,-1.49345 6,-2c2.96124,-0.48055 4.02673,-1.77025 5,-2c2.17627,-0.51375 3,-1 3,-1c1,0 2,0 3,0c1,0 1,0 2,0c1,0 1,0 2,0c1,0 2,1 3,1c1,0 2,0 2,0c2,1 3,1 4,1c0,0 0,1 2,1c2,0 2,1 4,1c1,0 2,0 3,0c2,0 2.29291,0.29289 3,1c0.70709,0.70711 2,0 3,0c2,0 1.3869,1.9176 4,3c0.92389,0.38269 1.02673,-0.22975 2,0c2.17627,0.51375 3,2 3,2c0,1 1.29291,1.29289 2,2c0.70709,0.70711 0.29291,2.29289 1,3c0.70709,0.70711 0.29291,0.29289 1,1c0.70709,0.70711 2,0 2,1c0,1 0.29291,2.29289 1,3c0.70709,0.70711 1,0 1,1c0,1 0.29291,1.29289 1,2c0.70709,0.70711 0.8244,0.09789 2,2c0.52576,0.85065 0,2 0,3c0,0 -0.4588,0.69344 -1,2c-0.76538,1.84776 0,2 0,3c0,1 -1,1 -1,2c0,1 -0.48627,0.82375 -1,3c-0.22974,0.97325 0,2 0,2c0,2 -1,4 -1,4c0,1 0.38269,2.07613 0,3c-0.5412,1.30656 -1.4588,1.69344 -2,3c-0.38269,0.92387 -1,1 -1,2c0,0 0,0 0,1c0,1 -1,2 -1,3c0,0 0,1 -1,1c-1,0 -2,1 -2,1c0,1 -2,1 -3,1c-1,0 -1,0 -2,0c-1,0 -3,0 -3,0c-1,0 -1.29291,0.29289 -2,1c-0.70709,0.70711 -2,0 -3,0c-1,0 -1,0 -2,0c-1,0 -1,0 -2,0c-1,0 -3,0 -3,0c-1,0 -2,0 -3,0c-1,0 -1,0 -2,0c-1,0 -2,0 -3,0c0,0 -1,0 -2,0c-1,0 -2,0 -2,0c-1,0 -2.07611,-0.38269 -3,0c-1.30658,0.5412 -1,1 -2,1c-1,0 -2,0 -3,0c0,0 -1,0 -2,0c-1,0 -2,0 -2,0c-1,0 -4,0 -4,0c-1,0 -2,0 -3,0c-1,0 -2,0 -3,0c-1,0 -2,0 -2,0c-1,0 -2,0 -3,0c-1,0 -1,0 -2,0c-1,0 -2,0 -3,0c0,0 -1,0 -2,0c-1,0 -2,0 -2,0c-1,1 -2,1 -3,1c-1,0 -1,0 -2,0c-2,0 -4,0 -5,0c-1,0 -2,0 -2,0c-1,0 -2,0 -3,0c-1,0 -1,0 -2,0c-1,0 -2,0 -3,0c0,0 -1,0 -2,0c-1,0 -2,0 -2,0c-2,0 -4,1 -5,1c-1,0 -3,0 -4,0c-2,0 -3,0 -3,0c-1,0 -2,0 -3,0c-1,0 -1,0 -2,0c-1,0 -2,0 -3,0c-1,0 -2,0 -3,0c-1,0 -1,0 -3,0c-2,0 -2,0 -3,0c-1,0 -3,0 -3,0c-1,0 -2,0 -3,0c-1,0 -1,0 -2,0c-1,0 -2,0 -3,0c-1,0 -2,0 -3,0c-2,0 -3,0 -5,1c0,0 -2,0 -3,0c-1,0 -1,0 -3,0c-1,0 -2,0 -2,0c-1,0 -2,0 -2,0c-1,0 -2,0 -2,0c-1,0 -1,2 -2,2c-1,0 -2,0 -2,0c-1,1 -2,2 -3,2c-1,0 -1,1 -1,1c0,1 0.41418,1.58578 -1,3c-0.70709,0.70711 -2,0 -2,0c0,1 -1.29291,1.29289 -2,2c-0.70709,0.70711 0,2 -1,2c0,0 0.30658,1.4588 -1,2c-0.92389,0.38269 -1,1 -1,2c0,0 0.70709,1.29289 0,2c-0.70709,0.70711 -1,2 -1,2c0,1 -2,2 -2,3c0,1 0,1 0,2c0,1 -1,2 -1,3c0,0 0,1 0,2c0,1 0,2 0,2c0,1 0,2 0,3c0,1 0,1 0,2c0,1 0,1.99998 0,2.99998c0,0 0,1 0,2c0,2 0,2 0,3c0,1 0,2 0,3c0,2 0,3 0,4c0,0 0,1 0,2c0,1 0,2 0,2c0,1 0,2 0,3c0,1 0,1 0,3c0,1 0,2 0,3c0,2 0,3 0,4c0,1 0,2 0,3c0,1 0,2 0,3c0,1 0,1 0,2c0,2 -1,3 -1,3c0,1 -1,3 -1,4c0,1 0,3 0,4c0,0 0,2 0,3c0,1 0,2 0,3c0,1 0,2 0,2c0,1 0,2 0,3c0,1 0,1 0,2c0,1 0,2 0,3c0,0 0,1 0,2c0,1 0,2 0,2c0,1 0,2 0,3c0,1 0,1 0,3c0,1 0,2 0,2c0,1 0,2 0,4c0,1 0,2 0,3c0,1 0,1 0,3c0,1 0,2 0,2c0,1 0,2 0,4c0,0 0,1 0,2c0,1 0,3 0,4c0,1 0,2 0,2c0,1 0,2 0,4c0,0 0,1 0,2c0,1 0,2 0,3c0,1 0,2 0,3c0,0 0,1 0,2c0,1 0,2 0,2c0,1 0,2 0,3c0,1 0,1 0,2c0,1 0,2 0,3c0,0 0,1 0,2c0,1 0,2 0,2c0,1 0,2 0,3c0,1 0,3 0,4c0,1 0,1 0,3c0,1 0,2 0,2c0,1 0,2 0,3c0,1 0,2 0,3c0,1 0,2 0,2c0,1 0.29291,1.29291 1,2c0.70709,0.70709 0,2 1,2c0,0 0,1 0,2c0,1 0,2 0,2l0,1" id="svg_2" stroke="#000" fill="none"/>
 </g>
</svg>