<svg width="800" height="600" xmlns="http://www.w3.org/2000/svg" stroke="null">
 <g stroke="null">
  <title stroke="null">Layer 1</title>
  <path d="m-150,108c0,-1 0,-2 0,-5l4,-6l6,-2" id="svg_1" stroke="#000" fill="none"/>
  <polyline fill="none" stroke="#000" stroke-width="10" points="426,281 426,280 426,279 " id="svg_74" stroke-linecap="round"/>
  <path fill="none" stroke-width="10" id="svg_78" d="m537.55439,268c0,1 0,3 0,5c0,1 0,4 0,5c0,2 0,3 0,7c0,6 0.82512,7 0.82512,9c0,1 0,2 0,4c0,2 0,3 0,5c0,1 0.75713,2.38687 1.65023,5c0.31576,0.92387 0,2 0,3c0,1 0,2 0,4c0,1 -0.24168,3.29289 -0.82512,4c-1.16687,1.41422 -2.92845,1.95517 -5.77581,3c-2.36914,0.86935 -4.12558,2 -5.77581,2c-4.12558,0 -9.23078,0.39172 -14.85209,2c-3.5913,1.02748 -4.9507,2 -7.42604,2c-2.47535,0 -5.81842,-0.64073 -9.07628,0c-5.15108,1.01308 -9.90139,2 -17.32744,2c-14.85209,0 -33.00464,0 -48.68185,0c-8.25116,0 -14.85209,0 -16.50232,0c-3.30046,0 -9.88596,-0.15591 -23.10325,-2c-15.66039,-2.18494 -29.75441,-3.61234 -41.25581,-6c-4.14688,-0.86089 -4.96168,-0.95399 -10.72651,-3c-8.26728,-2.93414 -19.22696,-5.38257 -28.05395,-11c-4.25967,-2.71082 -6.60093,-6 -8.25116,-8c-0.82512,-1 -1.03676,-1.797 -1.65023,-3c-2.74352,-5.37999 -1.65023,-8 -2.47535,-11c-0.82512,-3 -0.82512,-6 -1.65023,-7c-0.82512,-1 -0.82512,-2 -0.82512,-3c0,-1 0,-2 0,-3c0,-1 0,-2 0,-3c0,-1 -0.37856,-1.69344 -0.82512,-3c-0.31576,-0.92387 0,-2 0,-4l0,-1l0,-1" stroke="#000"/>
 </g>

</svg>