<svg width="1012" height="506" xmlns="http://www.w3.org/2000/svg">
 <g id="Layer_1">
  <title>Layer 1</title>
  <path stroke-width="10" d="m574,296.39999c-2,-2 -3.31073,-4.08026 -4,-7c-1.02747,-4.35251 -4,-8 -4,-9c0,-3 -1,-3 -1,-3c-1,-2 -0.29291,-3.29291 -1,-4c-0.70709,-0.70709 -0.61731,-0.07611 -1,-1c-0.5412,-1.30655 -1,-2 -1,-3c0,-1 -2.14429,-3.93414 -3,-6c-1.21014,-2.92157 -3.25653,-9.79698 -4,-10.99998c-1.66254,-2.68999 -0.42041,-5.08582 -1,-7c-1.04486,-3.45085 -1.23462,-4.15224 -2,-6c-0.5412,-1.30656 -1,-2 -1,-2c-1,-1 -1,-3 -1,-4c0,-3 0,-4 0,-5c0,-2 0,-3 0,-3c0,-2 0,-3 0,-4c0,-1 0,-2 0,-3c0,-1 0.4588,-1.69344 1,-3c0.38269,-0.92387 0.29871,-0.94853 2,-2c1.9021,-1.17557 2.25653,-3.797 3,-5c1.66254,-2.68999 2.8244,-2.09789 4,-4c0.52576,-0.85065 1.4588,-2.69344 2,-4c0.38269,-0.92387 2,-2 3,-3c1,-1 3.07611,-3.61731 4,-4c1.30658,-0.5412 2.77063,-3.25935 5,-5c4.59601,-3.58844 7.66888,-5.62021 11,-7c4.71088,-1.95131 8.07843,-2.78986 11,-4c6.19757,-2.56712 8.85272,-4.1731 10,-5c1.81396,-1.30745 4.54913,-1.95517 8,-3c2.87128,-0.86935 4.87854,-1.49345 8,-2c1.97418,-0.32036 5,-1 9,-1c3,0 7,-1 10,-1c2,0 5,0 5,0c4,0 5,0 8,0c4,0 7,1 10,1c2,0 6.04498,0.26691 12,1c4.09222,0.50377 5.82373,1.48625 8,2c2.91974,0.68925 7.07843,1.78986 10,3c2.06586,0.85571 4.2771,0.22801 8,2c4.51471,2.14886 8,3 10,4c2,1 5.85272,2.1731 7,3c3.62799,2.6149 6.29291,1.29289 7,2c0.70709,0.70711 0,2 2,2c2,0 -0.12134,0.87868 2,3c0.70709,0.70711 1.29291,0.29289 2,1c0.70709,0.70711 1.29291,0.29289 2,1c0.70709,0.70711 2.8244,-0.90211 4,1c0.52576,0.85065 2,2 4,3c2,1 3.29291,2.29289 4,3c0.70709,0.70711 2.82373,0.48625 5,1c1.94647,0.4595 1.0979,1.82443 3,3c1.70129,1.05147 3,0 4,1c1,1 1.47424,1.14935 2,2c1.1756,1.90211 3,2 4,3c1,1 2,2 2,2c2,2 3.29291,3.29289 4,4c0.70709,0.70711 0,2 1,3c1,1 2.77026,2.02675 3,3c0.51373,2.17625 2.95514,1.54915 4,5c0.28979,0.95709 2.41888,2.41885 4,4c1.58112,1.58115 4,2 4,2c2,3 3.61731,3.07613 4,4c1.0824,2.61313 1.33746,3.31001 3,6c0.74347,1.203 1.22418,1.90283 2,4c1.43048,3.867 1.4588,5.69344 2,7c0.76538,1.84776 0.49347,4.87856 1,7.99998c0.32037,1.97418 0,3 0,5c0,1 0,3 0,4c0,1 0,1 0,5c0,1 0,4 0,4c1,0 1,2 1,3c0,1 0,1 0,3c0,2 -0.23462,3.15225 -1,5c-0.5412,1.30655 -3.06598,4.87766 -5,6c-3.11847,1.80972 -4.45807,4.66446 -8,7c-4.49573,2.96448 -6.69342,3.4588 -8,4c-1.84778,0.76538 -1.58582,0.58578 -3,2c-0.70709,0.70709 -2,1 -3,1c-1,0 -0.82373,0.48627 -3,1c-1.94647,0.4595 -4.18604,0.69254 -6,2c-1.14728,0.8269 -6,4 -8,4c-1,0 -2.15222,0.23462 -4,1c-1.30658,0.5412 -3,1 -4,1c-2,0 -3,1 -5,1c-2,0 -3,1 -4,1c-2,0 -3,0 -5,0c-2,0 -3,0 -4,0c-1,0 -3.08026,-0.31073 -6,-1c-2.17627,-0.51373 -4,-1 -6,-1c-2,0 -4.10699,-0.08099 -8,-1c-2.17627,-0.51373 -4.58582,0.41422 -6,-1c-0.70709,-0.70709 -4.15222,-0.23462 -6,-1c-1.30658,-0.5412 -2,-1 -2,-1c-1,0 -3,0 -4,0c0,0 -1,0 -3,0c-3,0 -5,0 -7,0c-2,0 -3,0 -5,0c-1,0 -3,0 -4,0c-1,0 -1,0 -2,0c-2,0 -3.05353,0.4595 -5,0c-2.17627,-0.51373 -3,-1 -4,-1c-2,0 -2.69342,-0.4588 -4,-1c-4.61938,-1.91342 -6,0 -8,0c-3,0 -5,0 -9,0c-1,0 -3,0 -4,0c-1,0 -1.69342,-0.4588 -3,-1c-0.92389,-0.38269 -1.69342,-0.4588 -3,-1c-0.92389,-0.38269 -2,0 -3,0c-1,0 -2.14935,0.52573 -3,0c-1.9021,-1.17557 -2,-3 -3,-3c-2,0 -2,-1 -3,-1c-1,0 -2.07611,-0.61731 -3,-1c-1.30658,-0.5412 -3.14935,-2.47427 -4,-3c-1.9021,-1.17557 -3.91827,-3.11215 -8,-6c-2.94336,-2.08246 -4.18604,-1.69254 -6,-3c-2.29456,-1.65381 -4,-5 -5,-6c-1,-1 -1.29291,-2.29291 -2,-3c-0.70709,-0.70709 -2,-2 -2,-2c-1,0 -1,-1 -1,-2c0,-1 0,-2 0,-2c0,-1 0,-2 0,-3c0,-1 1,-1 2,-2c1,-1 2,-2 2,-2c0,-1 3,-1 4,-2c1,-1 2,-1 3,-2c1,-1 3.07611,-1.61731 4,-2c1.30658,-0.5412 1.85272,-2.1731 3,-3c1.81396,-1.30746 2.61731,-1.07611 3,-2c0.5412,-1.30655 2,-1 3,-2c1,-1 2,-1.99998 3,-2.99998c1,-1 1.4588,-0.69344 2,-2c0.38269,-0.92387 1.07611,-1.61731 2,-2c1.30658,-0.5412 1.07611,-0.61731 2,-1c1.30658,-0.5412 2.4588,-0.69344 3,-2c0.38269,-0.92387 1.82373,-1.48625 4,-2c1.94647,-0.4595 4.04291,-0.71022 5,-1c3.45087,-1.04483 2.82373,-2.48625 5,-3c1.94647,-0.4595 3,0 5,0c1,0 3,0 4,0c1,0 0.82373,-0.48625 3,-1c0.97327,-0.22975 2,0 2,0c2,0 4,0 5,0c2,0 3,0 5,0c2,0 3,0 4,0c2,0 3,0 4,0c2,0 3,1 5,1c1,0 1,0 2,0c1,0 2.29291,0.29289 3,1c0.70709,0.70711 2.58582,-0.41422 4,1c0.70709,0.70711 1,2 2,2c1,0 1.69342,1.4588 3,2c0.92389,0.38269 0.69342,1.4588 2,2c0.92389,0.38269 1,0 1,1c0,1 0.85272,1.1731 2,2c1.81396,1.30745 2.07611,0.61731 3,1c1.30658,0.5412 1.0979,2.82442 3,3.99998c0.85065,0.52573 1.69342,1.4588 3,2c0.92389,0.38269 0.69342,1.4588 2,2c0.92389,0.38269 1.58582,-0.41422 3,1c0.70709,0.70709 0,2 0,2c1,0 1.29291,0.29291 2,1c0.70709,0.70709 0.29291,1.29291 1,2c0.70709,0.70709 1,1 2,2c1,1 1,3 1,4c0,0 -0.41418,2.58578 1,4c0.70709,0.70709 1,0 1,2c0,1 1,2 1,4c0,1 0.4588,1.69345 1,3c0.38269,0.92389 0,3 0,3c2,1 2,3 2,4c0,0 0,1 0,2c0,1 -0.29291,1.29291 -1,2c-0.70709,0.70709 -1,1 -1,2c0,1 0,2 -1,2c0,0 -1,0 -1,1c0,0 -0.29291,1.29291 -1,2c-0.70709,0.70709 -1,1 -1,1c-1,0 -1.29291,0.29291 -2,1c-0.70709,0.70709 0.70709,1.29291 0,2c-0.70709,0.70709 -2,1 -2,1c-1,0 -2,2 -3,2c-1,0 -2,1 -3,2c0,0 -0.02673,-0.22977 -1,0c-2.17627,0.51373 -3,3 -3,3c-1,0 -2,0 -3,0c-1,0 -1.69342,-0.4588 -3,-1c-0.92389,-0.38269 -2,0 -2,-1c0,0 -1,0 -2,0c-1,0 -2,-1 -2,-1c-1,0 -2,0 -3,0c-1,0 -2,0 -4,0c-1,0 -1,0 -3,0c-1,0 -2,0 -2,0c-1,0 -2,0 -4,0c0,0 -1,0 -2,0c-1,0 -2,0 -2,0c-2,0 -3,0 -4,0c-1,0 -2,0 -4,0c-1,0 -2,0 -4,0c0,0 -1,0 -2,0c-1,0 -2,0 -2,0c-1,0 -2,0 -4,0c0,0 -1,0 -3,0c-1,0 -2,0 -3,0c-1,0 -2,0 -2,0c-2,0 -4,0 -5,0c-1,0 -2,0 -3,0c0,0 -1.07611,0.38269 -2,0c-1.30658,-0.5412 -2,-1 -3,-1c-1,0 -2,-1 -3,-1c0,0 -1,-1 -2,-1c-1,0 -2,-1 -2,-1c-2,0 -4,0 -5,0c-2,0 -5,-1 -6,-1c-5,0 -5,-1 -7,-1c-2,0 -4.69342,-0.4588 -6,-1c-0.92389,-0.38269 -2,0 -3,0c-1,0 -1,0 -2,0c-2,0 -3,0 -4,0c-1,0 -2,0 -3,0c0,0 -1,0 -3,0c-1,0 -1,0 -2,0c-1,0 -2,0 -3,0c0,0 -1,0 -2,0c-1,0 -2,0 -2,0c-2,0 -3,0 -4,0c0,0 -2,1 -3,1c-1,0 -2.07611,-0.38269 -3,0c-1.30658,0.5412 -2,1 -2,1c-1,0 -2,0 -3,0c-1,0 -1,0 -2,0c-1,0 -2,0 -3,0c0,0 -1,0 -2,0c-2,0 -2,0 -4,0c-1,0 -2,0 -2,0c-1,0 -3,0 -4,0c0,0 -1,0 -4,0c0,0 -2,0 -4,0c-1,0 -2.69342,-0.4588 -4,-1c-0.92389,-0.38269 -2,0 -3,0c-1,0 -1,0 -2,0c-2,0 -3,0 -3,0c-2,-1 -3,-1 -4,-1c-2,0 -4,0 -6,0c-2,0 -3,0 -5,0c-1,0 -3,0 -4,0c-1,0 -2,0 -4,0c-1,0 -4,-1 -5,-1c-1,0 -3,0 -4,0c0,0 -1,0 -2,0c-2,0 -2,0 -3,0c-2,0 -3,0 -4,0c-3,0 -3,0 -5,0c-1,0 -2,0 -2,0c-2,0 -4,0 -5,0c-2,0 -3,0 -3,0c-1,0 -2.07611,0.38269 -3,0c-1.30655,-0.5412 -2,-1 -3,-1c-1,0 -2,0 -2,0c-1,0 -3,0 -4,0c0,0 -1,0 -2,0c-1,0 -2.07611,0.38269 -3,0c-1.30655,-0.5412 -3,-1 -3,-1c-1,0 -3,0 -4,0c-1,0 -2,0 -3,0c-1,0 -2,0 -3,0c-2,0 -3,0 -5,0c-1,0 -1,0 -3,0c-1,0 -3,0 -4,0c-1,0 -2,0 -2,0c-1,0 -2,0 -3,0c-1,0 -1,0 -2,0c-1,0 -2,0 -3,0l0,0l-1,0l-1,0" id="svg_1" stroke="#000" fill="none"/>
 </g>
</svg>