<svg width="1012" height="506" xmlns="http://www.w3.org/2000/svg">
 <g id="Layer_1">
  <title>Layer 1</title>
  <path stroke-width="10" d="m522,168.40001c-2,1 -4,1 -7,2c-3,1 -5.41208,-0.03145 -9,2c-1.23065,0.69678 -3.74673,-1.62866 -8,1c-1.9021,1.17557 -2.82376,2.48625 -5,3c-0.97324,0.22975 -3,1 -4,1c-3,0 -3,0 -4,0c-1,0 -4,0 -5,0c-1,0 -2,0 -3,0c-3,0 -3,0 -5,0c-1,0 -4.94855,-1.29869 -6,-3c-1.17557,-1.90211 -2,-1 -4,-1c0,0 -1.29291,-0.29289 -2,-1c-0.70709,-0.70711 -1.4588,-0.69344 -2,-2c-0.38269,-0.92387 -0.02676,-0.77025 -1,-1c-2.17624,-0.51375 -2.29291,-2.29289 -3,-3c-0.70709,-0.70711 -0.4588,-0.69344 -1,-2c-0.38269,-0.92387 -0.61731,-1.07613 -1,-2c-0.5412,-1.30656 -1.29291,-0.29289 -2,-1c-0.70709,-0.70711 -1,-1 -1,-2c0,-2 -1,-2 -1,-3c0,-1 -0.4588,-1.69344 -1,-3c-1.14804,-2.77164 0,-4 0,-5c0,-1 0,-2 0,-3c0,0 0,-2 0,-3c0,-1 -1.14804,-1.22836 0,-4c0.5412,-1.30656 1,-1 1,-2c0,-1 2,-2 2,-3c0,-1 0.4588,-1.69344 1,-3c0.38269,-0.92387 1,-1 1,-1c0,-1 0,-2.00001 1,-3.00001c1,-1 1.9176,-0.38687 3,-3c0.38269,-0.92388 1.23462,-3.15224 2,-5c0.5412,-1.30656 1.71021,-1.04291 2,-2c1.04483,-3.45084 3.82443,-2.09789 5,-4c0.52573,-0.85065 1,-2 1,-2c1,0 3,-1 4,-2c1,-1 2.69345,-2.4588 4,-3c0.92389,-0.38268 4,-1 6,-2c2,-1 3,-2 5,-2c0,0 0.69345,-0.4588 2,-1c1.84775,-0.76537 2.29291,-0.29289 3,-1c0.70709,-0.70711 2.07611,-0.38268 3,0c1.30655,0.5412 3.58578,0.58578 5,2c0.70709,0.70711 2.15097,-0.56538 4,2c0.58472,0.81124 1.07611,0.61732 2,1c1.30655,0.5412 2.07611,0.61732 3,1c1.30655,0.5412 0.43463,2.15099 3,4c1.6225,1.16942 4,0 4,1c0,2 2,2 3,3c1,1 0.0979,1.82443 2,3c0.85065,0.52573 1,1 2,1c1,0 1.58582,-0.41422 3,1c1.41418,1.41422 0,3 1,3c1,0 0.29291,0.29289 1,1c0.70709,0.70711 1.4588,0.69344 2,2c0.38269,0.92388 1.48627,0.82375 2,3c0.22974,0.97326 0,2.00001 0,2.00001c0,0 0.48627,0.82375 1,3c0.22974,0.97325 0,1 0,2c0,1 0,2 0,3c0,0 0.4588,0.69344 1,2c0.38269,0.92387 0,2 0,2c1,1 1,3 1,4c0,0 0,2 0,3c0,1 0,1 0,2c0,1 0,2 0,3c0,0 0,1 0,2c0,1 0,2 0,2c0,2 0,3 0,4c0,0 -1,2 -1,4c0,0 -0.4588,1.69344 -1,3c-0.38269,0.92387 -1,2 -1,4c0,1 -1,4 -1,5c0,0 0,2 0,3c0,1 0,1 0,2c0,1 -1,2 -1,3c0,0 -1,1 -2,4c0,0 0,2 0,4c0,0 -1.49347,0.87856 -2,4c-0.32037,1.97418 -2,4 -2,4c0,1 -0.34619,2.70546 -2,5c-1.30743,1.814 -2,3 -2,3c-2,3 -3.29291,3.29289 -4,4c-0.70709,0.70711 -1.61383,1.297 -4,4c-1.47983,1.67633 -3.29291,2.29289 -4,3c-0.70709,0.70711 -2,1 -3,2c-1,1 -1.47427,1.14935 -2,2c-1.17557,1.90211 -4,4 -5,5c-2,2 -1.61731,3.07613 -2,4c-0.5412,1.30656 -3.29291,3.29289 -4,4c-1.41422,1.41422 0,3 -1,4c-2,2 -2.85272,4.1731 -4,5c-1.814,1.30745 -2.41528,2.18875 -3,3c-1.84903,2.56537 -3.38687,2.9176 -6,4c-0.92389,0.38269 -2,1 -6,2.99998c0,0 -0.82376,1.48627 -3,2c-0.97324,0.22977 -3,1 -4,2c-1,1 -1,1 -2,1c-1,0 -2.29291,0.29291 -3,1c-0.70709,0.70709 -0.29291,2.29291 -1,3c-0.70709,0.70709 -1.61731,0.07611 -2,1c-0.5412,1.30655 -3,2 -4,3c-1,1 -0.38687,2.9176 -3,4c-0.92389,0.38269 -2.43463,2.15097 -5,4c-1.6225,1.16943 -4.07611,0.61731 -5,1c-2.61313,1.0824 -4.15225,2.23462 -6,3c-1.30655,0.5412 -1.93414,2.14429 -4,3c-2.92157,1.21014 -5.29291,1.29291 -6,2c-0.70709,0.70709 -1.82376,1.48627 -4,2c-0.97324,0.22977 -2.69345,1.4588 -4,2c-0.92389,0.38269 -3.87857,1.49347 -7,2c-2.96127,0.48056 -4,0 -6,0c-3,0 -6,1 -7,1c-1,0 -2,0 -4,0c-1,0 -2,1 -3,1c-1,0 -1,0 -2,0c-1,0 -2.29291,-0.70709 -3,0c-0.70709,0.70709 -1,1 -2,1c-2,0 -2.02676,-0.22977 -3,0c-2.17624,0.51373 -3,1 -3,1c-3,1 -4.07611,0.61731 -5,1c-1.30655,0.5412 -3,1 -4,1c-1,0 -2,0 -3,0c0,0 -3,1 -4,1c-1,0 -3.0535,0.5405 -5,1c-2.17624,0.51373 -3,1 -3,1c-1,0 -4,0 -4,0c-1,0 -2,0 -4,0c-1,0 -3,0 -4,0c0,0 -3,0 -4,0c-1,0 -3,0 -4,0c-1,0 -2,0 -3,0c-1,0 -1.0535,-0.4595 -3,0c-2.17624,0.51373 -3,1 -4,1c-1,0 -2,0 -3,0c-1,0 -2,0 -3,0l0,0l-1,0" id="svg_3" stroke="#000" fill="none"/>
 </g>
</svg>