<svg width="1012" height="506" xmlns="http://www.w3.org/2000/svg">
 <g id="Layer_1">
  <title>Layer 1</title>
  <path stroke-width="10" d="m758,189.40001c-1,0 -4,0 -4,0c-2,0 -4.07611,-0.61731 -5,-1c-1.30658,-0.5412 -1.82373,-1.48625 -4,-2c-2.91974,-0.68925 -4,-1 -9,-1c-3,0 -7,0 -10,0c-4,0 -6,0 -7,0c-1,0 -2,0 -3,0c-1,0 -2,0 -2,0c-1,0 -3,0 -4,0c-1,0 -2,0 -3,0c-2,0 -3,0 -4,0c-1,0 -5.07611,-0.38269 -6,0c-1.30658,0.5412 -3,1 -3,1c-3,0 -4,1 -4,1c-2,0 -3,0 -4,0c-1,0 -2.58582,-1.41422 -4,0c-0.70709,0.70711 -0.29291,1.29289 -1,2c-0.70709,0.70711 -2,0 -3,0c0,0 0,1 -1,1c-1,0 -2.8244,1.09789 -4,3c-0.52576,0.85065 -0.29291,1.29289 -1,2c-0.70709,0.70711 -1.29291,0.29289 -2,1c-0.70709,0.70711 0,1 0,1c-2,1 -3,3 -4,4c0,0 -0.82373,1.48625 -3,2c-0.97327,0.22975 -2.29291,0.29289 -3,1c-0.70709,0.70711 -1.29291,0.29289 -2,1c-0.70709,0.70711 -1.29291,1.29289 -2,2c-0.70709,0.70711 -1.29291,0.29289 -2,1c-0.70709,0.70711 -0.29291,0.29289 -1,1c-0.70709,0.70711 0.41418,1.58578 -1,3c-0.70709,0.70711 -1,1 -2,1c0,0 -0.61731,1.07613 -1,2c-0.5412,1.30656 -1,2 -1,3c0,1 0,2 1,3c0,0 1,1 4,4c0,0 1,0 1,1c0,0 -0.30658,1.4588 1,2c1.84778,0.76537 2.61731,0.07613 3,1c0.5412,1.30656 2.29291,0.29289 3,1c0.70709,0.70711 0,2 1,2c1,0 1.07611,0.61731 2,1c1.30658,0.5412 2,2 2,2c1,2 2,2 3,2c0,0 1,0 1,1c0,0 0.29291,1.29289 1,2c0.70709,0.70711 2.29291,0.29289 3,1c0.70709,0.70711 1,2 2,2c1,0 1.29291,0.29289 2,1c0.70709,0.70711 0,1 2,1c1,0 2,0 3,1c1,1 1.69342,1.4588 3,2c0.92389,0.38269 2.29291,-0.70711 3,0c0.70709,0.70711 1,1 2,1c3,0 3,0 4,0c2,0 3,0 4,0c1,0 1.69342,0.4588 3,1c0.92389,0.38269 2,1 4,1c0,0 1,1 2,1c1,0 2.76111,0.41589 6,2c2.8407,1.38936 6.05353,1.54048 8,1.99998c2.17627,0.51373 5.15222,0.23462 7,1c1.30658,0.5412 5.05353,1.5405 7,2c2.17627,0.51373 6,2 7,3c1,1 2.14935,0.47427 3,1c1.9021,1.17557 3.1731,1.85272 4,3c1.30743,1.814 2.07611,2.61731 3,3c1.30658,0.5412 1.85272,2.1731 3,3c1.81396,1.30746 2.07611,1.61731 3,2c1.30658,0.5412 1.29291,2.29291 2,3c0.70709,0.70709 3.29291,-0.70709 4,0c0.70709,0.70709 0.77026,1.02676 1,2c0.51373,2.17624 2.07611,1.61731 3,2c1.30658,0.5412 1.07611,1.61731 2,2c1.30658,0.5412 2,2 2,2c0,1 1,2 1,3c0,1 0,2 0,5c0,0 0,1 0,2c0,1 0,2 0,2c0,2 0,5 0,7c0,2 -0.21179,4.38458 -1,5c-3.24988,2.53741 -1.61731,6.07611 -2,7c-0.5412,1.30655 -1.61731,2.07611 -2,3c-0.5412,1.30655 -1,2 -2,2c-1,0 -1,1 -2,2c-1,1 -4.9176,2.38687 -6,5c-0.38269,0.92389 -1.41888,0.41885 -3,2c-3.16229,3.16229 -3.02673,5.77023 -4,6c-2.17627,0.51373 -2.21167,2.71411 -5,5c-1.09369,0.89661 -2.59399,3.513 -5,5c-2.69,1.66251 -6.03748,2.38907 -11,3c-4.09222,0.50378 -5,1 -8,2c-3,1 -5.82373,1.48627 -8,2c-1.94647,0.4595 -2,1 -4,1c-1,0 -1.29291,0.29291 -2,1c-1.41418,1.41422 -4.00488,0.90146 -5,1c-5.07422,0.50244 -7,1 -9,1c-4,0 -6,1 -13,1c-2,0 -5,1 -8,1c0,0 -5,0 -7,0c-2,0 -5,0 -7,0c-3,0 -10,0 -14,0c-4,0 -6,0 -8,0c-5,0 -7,0 -8,0c-1,0 -3.01294,0.16019 -4,0c-3.12146,-0.50653 -4,-1 -5,-1c-4,0 -6.94672,-0.49875 -14,-1c-3.98993,-0.28357 -5,0 -9,0c-3,0 -6,0 -9,0c-1,0 -3,0 -4,0c-3,0 -7,0 -11,0c-4,0 -5,0 -11,0c-7,0 -9,0 -13,0c-2,0 -3.90778,0.49622 -8,1c-0.99249,0.12219 -1.82373,0.48627 -4,1c-2.91974,0.68927 -5.08582,-0.57956 -7,0c-3.45087,1.04483 -5,2 -9,2c-2,0 -7.82373,-0.48627 -10,-1c-1.9465,-0.4595 -3.03873,0.48056 -6,0c-3.12143,-0.50653 -6.0535,-1.5405 -8,-2c-2.17624,-0.51373 -3.92578,-1.49756 -9,-2c-3.98053,-0.39417 -6.93414,-0.14429 -9,-1c-2.92157,-1.21014 -5.90778,-2.49622 -10,-3c-0.99249,-0.12219 -3.07611,-0.61731 -4,-1c-1.30655,-0.5412 -3,-2 -4,-2c0,0 -1.02676,0.22977 -2,0c-2.17624,-0.51373 -2,-2 -4,-3c-2,-1 -3.31,-0.33749 -6,-2c-1.203,-0.7435 -2.82376,-1.48627 -5,-2c-2.91974,-0.68927 -5,-1 -7,-1c-3,0 -3.87857,-2.49347 -7,-3c-0.98709,-0.16019 -2.29291,-0.29291 -3,-1c-1.41422,-1.41422 -2.82376,-1.48627 -5,-2c-0.97324,-0.22977 -1.29291,-0.29291 -2,-1c-0.70709,-0.70709 -2,-1 -4,-1c-1,0 -2.07611,-0.61731 -3,-1c-1.30655,-0.5412 -3.29291,-1.29291 -4,-2c-0.70709,-0.70709 -2.08026,0.68927 -5,0c-2.17624,-0.51373 -3,-1 -4,-1c-1,0 -2.29291,-0.29291 -3,-1c-0.70709,-0.70709 -2,0 -3,-1c-1,-1 -2.29291,-1.29291 -3,-2c-0.70709,-0.70709 -1.61731,-0.07611 -2,-1c-0.5412,-1.30655 -2,-1 -2,-2c0,-2 -1.42044,-2.08582 -2,-4c-1.04483,-3.45084 -2.48627,-4.82376 -3,-7c-0.4595,-1.9465 0.26492,-2.20526 -1,-6c-1.58115,-4.74341 -4,-4 -4,-7c0,-1 -0.33749,-1.31 -2,-4c-0.7435,-1.203 -1.29291,-1.29291 -2,-2c-0.70709,-0.70709 -0.61731,-1.07611 -1,-2c-0.5412,-1.30655 -2.29291,-0.29291 -3,-1c-0.70709,-0.70709 -0.48627,-0.82376 -1,-3c-0.22977,-0.97324 -2.29291,-0.29291 -3,-1c-0.70709,-0.70709 0,-2 0,-2c-1,-1 -2,-2 -2,-2c0,-1 -1.29291,-2.29291 -2,-3c-0.70709,-0.70709 -1.48627,-1.82376 -2,-4c-0.22977,-0.97324 -1,-1 -1,-2c0,-2 -0.4588,-2.69345 -1,-4c-0.38269,-0.92389 0,-2 0,-3c0,0 -0.29291,-0.29291 -1,-1c-1.41422,-1.41422 0,-3 0,-3c0,-1 -0.82443,-1.0979 -2,-3c-0.52573,-0.85065 0,-1 0,-2c0,-0.99998 -1,-1.99998 -1,-2.99998c0,0 0,-1 0,-3c0,-1 0,-2 0,-3c0,-1 0,-2 0,-3c0,-2 2,-3 2,-3c0,-1 0,-3 0,-4c0,0 0,-1 0,-2c0,-1 -0.38269,-2.07613 0,-3c0.5412,-1.30656 1,-2 1,-3c0,0 1,-1 1,-3c0,-1 -0.70709,-1.29289 0,-2c0.70709,-0.70711 1,-1 1,-2c0,-1 0.29291,-1.29289 1,-2c0.70709,-0.70711 0.29291,-1.29289 1,-2c0.70709,-0.70711 1,-2 1,-3c0,-1 0,-2 0,-2c0,0 0,-1 1,-1l0,-1l0,-1l0,-1" id="svg_1" stroke="#000" fill="none"/>
  <path stroke-width="10" d="m683,400.39999c-1,1 -1,1 -2,1c0,0 -1.29291,-0.70709 -2,0c-0.70709,0.70709 -1,1 -1,1c0,1 -1,1 -1,2c0,1 -1,1 -1,2c0,1 1,1 2,1c0,0 1.14935,0.52573 2,0c1.9021,-1.17557 2,-2 2,-2c1,0 1.29291,0.70709 2,0c0.70709,-0.70709 -1,-1 -1,-2c0,-1 -1,-1 -1,-2c0,0 -1,0 -1,0c-1,0 -2,0 -3,0c-1,0 -1,0 -1,1c0,1 -0.38269,2.07611 0,3c0.5412,1.30655 0.29291,2.29291 1,3c0.70709,0.70709 1,1 2,1c0,0 0.29291,0.29291 1,1c0.70709,0.70709 1,0 2,0c1,0 1,-1 1,-1c0,-1 1,-2 1,-3c0,-1 -0.38269,-2.07611 0,-3c0.5412,-1.30655 1,-2 1,-2c-1,0 -2,0 -3,0c-1,0 -1.29291,-0.70709 -2,0c-0.70709,0.70709 -0.29291,1.29291 -1,2c-0.70709,0.70709 -1,1 -1,2c0,0 0,1 1,1c1,0 1,1 2,1c0,0 1.29291,0.70709 2,0c0.70709,-0.70709 1,-1 1,-2c0,0 0.38269,-1.07611 0,-2c-0.5412,-1.30655 -2,-1 -2,-2c0,0 -1,0 -1,-1c0,0 -1,0 -2,0c-1,0 -2,0 -3,1c0,0 -1,0 -1,1c0,1 0,2 0,3c0,0 0,1 0,2c0,1 0,2 0,2c1,0 2,0 3,0c1,0 2,0 2,0c1,0 1,-1 1,-2c0,-1 0,-2 0,-2c0,-1 0,-2 0,-3c0,-1 0,-1 0,-2c0,-1 0,-2 0,-2c-1,0 -2.29291,-0.70709 -3,0c-0.70709,0.70709 -0.29291,1.29291 -1,2c-0.70709,0.70709 0,1 0,2c0,1 0,2 0,3c0,0 0,1 0,2c0,0 0.29291,-0.29291 1,-1c0.70709,-0.70709 0,-1 1,-1l0,-1l0,-1" id="svg_2" stroke="#000" fill="none"/>
  <path stroke-width="10" d="m533,402.39999c-2,1 -2.85272,2.1731 -4,3c-1.81396,1.30746 -2.3869,2.9176 -5,4c-1.84778,0.76538 -1.29291,0.29291 -2,1c-0.70709,0.70709 -2.29291,-0.70709 -3,0c-0.70709,0.70709 0.70709,2.29291 0,3c-0.70709,0.70709 -2.41418,0.58578 -1,2c0.70709,0.70709 2.07611,0.61731 3,1c1.30658,0.5412 1,1 2,1c1,0 2,0 3,0c1,0 2,0 3,0c1,0 1,0 2,0c1,0 2.29291,0.70709 3,0c0.70709,-0.70709 0,-3 0,-4c0,0 0,-2 0,-3c0,-1 0,-1 0,-2c0,-1 0,-2 0,-3c0,0 0,-1 0,-2c0,0 -1,0 -2,0c-1,0 -2,0 -2,0c-1,0 -1.82373,0.48627 -4,1c-0.97327,0.22977 -2.82373,0.48627 -5,1c-0.97327,0.22977 -2.29291,1.29291 -3,2c-0.70709,0.70709 -1,1 -2,1c-1,0 -0.69342,1.4588 -2,2c-0.92389,0.38269 -0.29291,1.29291 -1,2c-0.70709,0.70709 -1,1 -2,1c0,0 0.07611,0.61731 1,1c1.30658,0.5412 2.82373,0.51373 5,0c0.97327,-0.22977 2,0 5,-1c0,0 4,0 4,0c3,-1 4,-2 4,-2c1,0 2.4588,0.30655 3,-1c0.38269,-0.92389 1,-1 1,-1c0,0 -2.8244,-3.0979 -4,-5c-1.05145,-1.70129 -1,-3 -2,-3c0,0 -2,0 -2,-1c0,0 -1.07611,-0.38269 -2,0c-1.30658,0.5412 -2,1 -2,1c-1,1 -2.4588,1.69345 -3,3c-0.38269,0.92389 -1,1 -1,2c0,1 0.70709,2.29291 0,3c-0.70709,0.70709 -1.30658,0.4588 0,1c0.92389,0.38269 2,1 4,1c1,0 2,0 3,0c1,0 4,0 5,0c1,0 2,0 3,0c1,0 0.29291,-0.29291 1,-1c0.70709,-0.70709 3.5412,0.30655 3,-1c-0.38269,-0.92389 -2,0 -3,0c0,0 -3,0 -4,0c0,0 -1,0 -3,0c-1,0 -1,0 -2,0c-1,0 -1,1 -2,1c-1,0 -2.70709,0.29291 -2,1c0.70709,0.70709 2,0 5,0c2,0 4,-1 5,-1c1,0 2,0 3,0c0,0 2,1 2,0c0,-1 -1,-1 -2,-1c0,0 0.30658,-1.4588 -1,-2c-0.92389,-0.38269 -1.85272,-0.1731 -3,-1c-1.81396,-1.30746 -3,-1 -4,-1c0,0 -1,0 -2,0c-1,0 -2,0 -2,0c-1,0 -2.29291,-0.70709 -3,0c-0.70709,0.70709 -0.61731,2.07611 -1,3c-0.5412,1.30655 -1,1 -1,2c0,1 1,1 1,1c1,0 3,0 4,0c0,0 1,0 2,0c1,0 2,0 2,0c0,-1 1,-1 2,-1c2,0 2,-1 1,-1c0,0 -1,-1 -1,-2c0,-1 -0.29291,-1.29291 -1,-2c-0.70709,-0.70709 -1,-1 -1,-1c-1,0 -2,0 -3,0c-1,0 -1.07611,-0.38269 -2,0c-1.30658,0.5412 -1.61731,1.07611 -2,2c-0.5412,1.30655 -1,1 -1,2c0,1 -1,1 -1,1c-1,0 -1,1 -1,2c0,1 1.4588,0.69345 2,2c0.38269,0.92389 0.61731,1.07611 1,2c0.5412,1.30655 2,1 3,2c0,0 2,0 3,0c1,0 1,0 2,0c1,0 3,0 3,0c1,0 2,0 3,0c1,0 1,-1 1,-2c0,-2 -1,-2 -1,-2c-1,0 -1.07611,-0.61731 -2,-1c-1.30658,-0.5412 -2.29291,-0.29291 -3,-1c-0.70709,-0.70709 -1,-1 -2,-1c0,0 -1,0 -3,0c-1,0 -0.41418,-0.41422 1,1c0.70709,0.70709 1,2 2,2c0,0 1,0 2,0c2,0 2,0 3,0c1,0 2,0 3,0c0,0 1.29291,0.70709 2,0c0.70709,-0.70709 0,-2 -1,-2c-1,0 -0.29291,-1.29291 -1,-2c-0.70709,-0.70709 -0.69342,-1.4588 -2,-2c-0.92389,-0.38269 -1.69342,-0.4588 -3,-1c-0.92389,-0.38269 -2,-1 -3,-1c0,0 -1,0 -2,0c-1,0 -2,0 -2,0c-1,0 -2,0 -3,0c-1,0 -1,1 -1,1c0,1 0.41418,1.58578 -1,3c-0.70709,0.70709 -1,0 -1,1c0,1 -0.70709,2.29291 0,3c0.70709,0.70709 1,1 2,1c0,0 0.29291,0.29291 1,1c0.70709,0.70709 2,0 3,0c0,0 2,0 4,0c0,0 1.07611,0.38269 2,0c2.6131,-1.0824 4,-2 6,-2c0,0 0,-1 1,-1c1,0 2,0 2,-1l1,0" id="svg_3" stroke="#000" fill="none"/>
 </g>
</svg>