<svg xmlns="http://www.w3.org/2000/svg"><defs/><g fill="#000000"><g transform="translate(0, 0)"><path d="M34.25 38.11L10.96 38.11Q6.27 38.11 3.49 36.47Q0 34.42 0 30.05Q0 27.78 1.03 25.42Q1.39 24.56 2.78 22.17L3.52 22.63Q2.98 23.75 2.47 24.88Q1.76 26.61 1.76 27.98Q1.76 30.86 4.79 32.45Q7.50 33.86 11.65 33.86L32.32 33.86L32.32 33.20Q32.32 30.47 31.67 28.75Q31.01 27.03 29.42 25.81L31.30 21.83Q32.37 23.17 32.59 23.51Q34.25 26.25 34.25 31.47L34.25 38.11M20.24 44.04L18.33 47.58L14.38 45.53L16.19 41.97L20.24 44.04Z"/></g></g></svg>