<svg width="800" height="600" xmlns="http://www.w3.org/2000/svg">

 <g>
  <title>Layer 1</title>
  <path stroke-width="6" d="m364,58c0,1 0,2 0,7c0,4 0,9 0,15c0,6 0,12 0,17c0,5 0,9 0,14c0,6 0,13 0,21c0,7 0,15 0,31c0,9 0,21 0,36c0,10 0,19 0,25c0,5 0,13 0,19c0,6 0,12 0,21c0,8 0,16 0,25c0,8 0,16 0,25c0,8 0,15 0,21c0,4 0,8 0,13c0,3 0,7 0,10c0,1 0,4 0,5c0,4 0,5 0,6c0,2 0,4 0,8c0,1 0,5 0,8c0,3 0,5 0,8c0,1 0,2 0,3c0,1 0,2 0,3c0,1 0,2 0,3c0,2 0,4 0,5c0,1 0,2 0,3c0,1 0,2 0,4c0,1 0,2 0,4l0,1l0,1" id="svg_2" stroke="#000" fill="none"/>
 </g>
</svg>