<svg width="800" height="600" xmlns="http://www.w3.org/2000/svg">
 <g>
  <title>Layer 1</title>
  <path fill="none" id="svg_2" d="m393,112c0,0.61878 0,1.23757 0,4.33149c0,2.47514 0,5.56906 0,9.28177c0,3.71271 0,7.42541 0,10.51934c0,3.09392 0,5.56906 0,8.66298c0,3.71271 0,8.0442 0,12.99448c0,4.33149 0,9.28177 0,19.18232c0,5.56906 0,12.99448 0,22.27624c0,6.18785 0,11.75691 0,15.46961c0,3.09392 0,8.0442 0,11.75691c0,3.71271 0,7.42541 0,12.99448c0,4.95028 0,9.90055 0,15.46961c0,4.95028 0,9.90055 0,15.46961c0,4.95028 0,9.28177 0,12.99448c0,2.47514 0,4.95028 0,8.0442c0,1.85635 0,4.33149 0,6.18785c0,0.61878 0,2.47514 0,3.09392c0,2.47514 0,3.09392 0,3.71271c0,1.23757 0,2.47514 0,4.95028c0,0.61878 0,3.09392 0,4.95028c0,1.85635 0,3.09392 0,4.95028c0,0.61878 0,1.23757 0,1.85635c0,0.61878 0,1.23757 0,1.85635c0,0.61878 0,1.23757 0,1.85635c0,1.23757 0,2.47514 0,3.09392c0,0.61878 0,1.23757 0,1.85635c0,0.61878 0,1.23757 0,2.47514c0,0.61878 0,1.23757 0,2.47514l0,0.61878l0,0.61878" stroke-width="6" stroke="#000"/>
  <path d="m475,213c0,1 0,2 0,4c0,3 -0.9021,4.82443 1,6c0.85065,0.52573 3,1 3,0c0,-1 -2,0 -4,0c-1,0 -2,0 -3,0c-1,0 0,0 2,0c3,0 4.69342,1.4588 6,2c0.92389,0.38269 3,-1 3,-5c0,-3 0,-4 0,-5c0,-1 -1,-1 -1,-2c0,-1 -1,-1 -3,-1c-1,0 -2,0 -4,0c-1,0 -3.29291,-0.70711 -4,0c-0.70709,0.70711 0,2 0,3c0,2 0,4 0,6c0,2 0.186,3.69255 2,5c1.14728,0.8269 2.0979,1.82443 4,3c0.85065,0.52573 2,0 3,0c1,0 1,-1 1,-3c0,-1 0,-3 0,-4c0,-2 0,-3 -1,-3c-1,0 -1.29291,-1.29289 -2,-2c-2.12131,-2.12132 -6,-2 -7,-2c-1,0 -2,1 -2,3c0,1 0,2 0,3c0,3 1.97897,4.06541 5,5c6.9549,2.1516 13,4 15,4c1,0 2,0 4,0c2,0 3,-4 3,-6c0,-5 0,-6 0,-9c0,-1 -1,-1 -2,-1c-1,0 -1.69342,-1.4588 -3,-2c-4.61938,-1.91342 -7.15222,-0.76537 -9,0c-2.6131,1.0824 -2.49347,2.87856 -3,6c-0.32037,1.97418 0,3 0,4c0,2 -1.14807,3.22836 0,6c1.6236,3.91969 7.85272,3.1731 9,4c1.81396,1.30745 3.58582,2.41422 5,1c0.70709,-0.70711 0,-3 0,-5c0,-1 0.56958,-4.17807 0,-5c-4.86664,-7.02254 -10.54913,-4.95517 -14,-6c-1.91418,-0.57957 -3,0 -4,0c-1,0 -2.82443,-0.90211 -4,1c-1.05145,1.70131 0,3 0,5c0,3 0.69345,5.4588 2,6c0.92389,0.38269 2.64749,1.97252 7,3c4.86627,1.14876 7.0979,3.17557 9,2c0.85065,-0.52573 1.49622,-4.90779 2,-9c0.36658,-2.97752 0,-4 0,-5c0,-1 -0.88495,-2.27431 -3,-3c-4.823,-1.65482 -9.87854,-3.49345 -13,-4c-0.98709,-0.16019 -2.29291,-0.70711 -3,0c-2.82843,2.82843 0,5 0,6c0,1 -0.28979,3.04291 0,4c1.04483,3.45085 4.87604,4.34315 10,6c3.9231,1.26855 6,1 6,-1c0,-2 0,-4 0,-6c0,-1 -2.08582,-0.42043 -4,-1c-3.45087,-1.04483 -4.7699,-2.54863 -9,-4c-4.82303,-1.65482 -8.14935,-2.52573 -9,-2c-1.9021,1.17557 -2,5 -2,6c0,2 -0.22977,3.02675 0,4c0.51373,2.17625 4.0979,2.82443 6,4c0.85065,0.52573 3.15225,-0.76537 5,0c2.6131,1.0824 4,2 5,2c2,0 4,-2 4,-4c0,-2 0,-3 0,-4c0,-2 0.70709,-3.29289 0,-4c-2.12134,-2.12132 -3.58582,-0.58578 -5,-2c-0.70709,-0.70711 -2,0 -2,3c0,4 0,6 0,7c0,2 -0.30655,3.4588 1,4c0.92389,0.38269 1.92578,1.49756 7,2c3.98053,0.39415 5,0 5,-2c0,-1 0,-3 0,-6c0,-2 0.40601,-4.513 -2,-6c-2.69,-1.66251 -5,-2 -6,-2c-1,0 -1.87854,-1.49345 -5,-2c-0.98709,-0.16019 -2.29291,-0.70711 -3,0c-1.41422,1.41422 0,4 0,7c0,3 0,4 0,6c0,1 0.69345,2.4588 2,3c0.92389,0.38269 4.29291,0.70711 5,0c0.70709,-0.70711 0,-4 0,-6c0,-3 0.94373,-4.23665 0,-6c-1.70129,-3.17892 -6.54916,-2.95517 -10,-4c-1.91418,-0.57957 -3,0 -3,2c0,1 0,2 0,4c0,2 0,5 0,7c0,3 0,4 0,5c0,1 -0.28799,3.98163 5,5c1.9639,0.37822 4,0 5,0c2,0 4,-3 4,-8c0,-2 0,-4 0,-5c0,-1 0.38269,-2.07613 0,-3c-0.5412,-1.30656 -3.87854,-1.49345 -7,-2c-1.97418,-0.32036 -3,0 -4,0c-1,0 -2.48627,-0.17625 -3,2c-0.4595,1.9465 0,5 0,7c0,1 -0.09717,2.2242 2,3c3.867,1.4305 5.97736,2.09544 10,3c4.97479,1.11867 9,2 9,1c0,-1 -4,-1 -5,-1c-1,0 -2.38269,0.07613 -2,1c0.5412,1.30656 3,1 4,1c1,0 2.29291,0.70711 3,0c0.70709,-0.70711 -2,-1 -3,-1l-1,0l-1,0l-1,0" id="svg_14" stroke-width="6" stroke="#000" fill="none"/>
  <path stroke="#000" d="m556.85597,220.61019c-0.63859,0 -1.39597,-0.20638 -2.55435,0.67126c-0.73264,0.55507 -0.63859,1.34253 -0.63859,2.01379c0,0.67126 -1.27717,0.67126 -1.27717,2.01379c0,0.67126 0,1.34253 0,2.01379c0,1.34253 0,2.01379 0.63859,2.01379c0.63859,0 0.39421,-1.39363 0.63859,-2.01379c0.6912,-1.7541 1.27717,-2.68505 1.27717,-4.02758c0,-1.34253 0,-2.01379 0,-2.68505c0,-0.67126 -0.93157,-0.87705 -1.27717,0c-0.24438,0.62016 0,2.01379 0,3.35631c0,4.02758 -0.90308,5.76332 0,6.71263c0.90308,0.94931 3.43599,1.28441 6.38586,0c1.66869,-0.72657 1.27717,-3.35631 1.27717,-4.69884c0,-1.34253 0.04206,-3.45317 -1.27717,-4.02758c-1.86567,-0.81232 -3.44,-1.28722 -5.10869,-2.01379c-0.58998,-0.25689 -0.63859,1.34253 -0.63859,2.01379c0,2.68505 0,4.69884 0,8.05515c0,0.67126 1.49318,2.00442 5.10869,0.67126c3.85845,-1.42273 5.10869,-5.3701 5.10869,-6.04137c0,-0.67126 -1.27717,-2.01379 -2.55435,-2.01379c-1.27717,0 -1.91576,0 -1.91576,1.34253c0,4.02758 -1.88158,9.08923 -0.63859,9.39768c1.38974,0.34486 1.27717,-2.01379 1.27717,-6.04137c0,-1.34253 0.45154,-2.2104 0,-2.68505c-0.45154,-0.47466 -1.91576,0 -3.19293,0c-1.91576,0 -2.55435,0 -4.4701,0c-0.63859,0 -0.63859,0.67126 -0.63859,2.01379c0,0.67126 0,1.34253 0,2.68505c0,2.01379 0.0983,3.32187 1.91576,2.68505c3.02908,-1.06136 5.42557,-4.63694 5.74728,-7.38389c0.07803,-0.66623 0,-2.01379 0,-1.34253c0,0.67126 0,2.68505 0,4.02758c0,1.34253 -0.45154,2.2104 0,2.68505c0.45154,0.47466 1.91576,0 1.91576,-0.67126c0,-0.67126 0.45154,-1.53913 0,-2.01379c-0.45154,-0.47466 -1.8382,-1.0025 -3.83152,-1.34253c-1.26069,-0.21504 -1.91576,0 -1.91576,0.67126c0,1.34253 0,4.02758 0,5.3701c0,1.34253 -0.45154,2.88166 0,3.35631c0.45154,0.47466 2.34964,-0.38336 3.83152,-3.35631c1.87441,-3.76052 1.27717,-6.71263 1.27717,-8.72642c0,-0.67126 0.45154,-1.53913 0,-2.01379c-0.45154,-0.47466 -3.19293,-1.34253 -4.4701,-1.34253c-0.63859,0 -1.42517,1.29398 -2.55435,5.3701c-1.47229,5.31463 -1.27717,8.05515 -1.27717,10.06894c0,0.67126 0,2.01379 0.63859,2.01379c1.27717,0 2.55435,0 3.83152,0c1.91576,0 2.90369,-2.76048 3.83152,-6.04137c0.9799,-3.465 1.27717,-5.3701 1.27717,-8.05515c0,-0.67126 -0.63859,-0.67126 -1.27717,-0.67126c-0.63859,0 -0.82563,0.19661 -1.27717,0.67126c-0.90308,0.94931 -1.27717,0.67126 -1.27717,1.34253c0,0.67126 -0.45154,1.53913 0,2.01379c0.90308,0.94931 3.09584,-0.0535 4.4701,-2.68505c1.79181,-3.43113 1.91576,-6.04137 1.91576,-6.71263c0,-1.34253 0.45154,-2.2104 0,-2.68505c-0.45154,-0.47466 -1.91576,-0.67126 -3.19293,-0.67126c-1.27717,0 -2.4725,0.0601 -3.83152,2.01379c-2.41352,3.46957 -3.69993,8.11385 -5.10869,11.41147c-0.58496,1.36926 -0.63859,2.68505 -0.63859,3.35631c0,1.34253 0,3.35631 0,4.02758c0,1.34253 -0.37339,2.81175 0,3.35631c1.18075,1.72204 7.54307,1.75699 10.85597,-0.67126c3.35406,-2.45842 3.83152,-6.71263 3.83152,-9.39768c0,-2.01379 0,-4.02758 0,-6.04137c0,-0.67126 -1.27717,-1.34253 -1.91576,-1.34253c-0.63859,0 -1.27717,0 -3.19293,0c-2.55435,0 -4.93603,3.50993 -7.66304,6.71263c-2.4092,2.82943 -5.69466,4.28727 -6.38586,6.04137c-0.48876,1.24033 0,2.01379 1.91576,2.01379c0.63859,0 3.51499,0.9438 6.38586,-0.67126c3.18494,-1.79176 5.10869,-6.04137 5.10869,-6.71263c0,-1.34253 0,-3.35631 0,-4.02758c0,-1.34253 -0.09721,-1.50003 -1.27717,-2.01379c-0.83436,-0.36329 -1.91576,-1.34253 -3.83152,-1.34253c-0.63859,0 -1.27717,4.02758 -1.91576,8.05515c-0.63859,4.02758 -1.67017,5.51227 -1.27717,6.04137c1.62036,2.1815 4.7222,1.8344 7.02445,0.67126c3.6854,-1.86192 4.76309,-6.50684 5.10869,-7.38389c0.48876,-1.24033 0.45154,-2.2104 0,-2.68505c-0.45154,-0.47466 -1.91576,0 -2.55435,0c-1.27717,0 -1.91576,0 -3.83152,0c-1.91576,0 -3.81398,1.77716 -4.4701,4.69884c-0.29345,1.30662 0,2.01379 0,3.35631c0,0.67126 0,1.34253 0,2.01379c0,0.67126 2.83201,2.3015 7.02445,0.67126c5.52176,-2.14716 11.15531,-10.43127 12.13314,-15.43905c0.51359,-2.63021 0.45154,-4.89545 0,-5.3701c-0.45154,-0.47466 -1.91576,0 -4.4701,0c-1.27717,0 -2.35802,0.79612 -3.19293,2.01379c-0.52805,0.77011 -1.17962,3.38405 -1.91576,6.04137c-0.56461,2.03806 -0.63859,3.35631 -0.63859,4.02758c0,0.67126 2.18275,2.27087 6.38586,0.67126c4.68962,-1.78476 4.4701,-7.38389 4.4701,-10.74021c0,-1.34253 0.11537,-2.16246 -0.63859,-2.68505c-2.87091,-1.98994 -6.38586,-1.34253 -9.5788,-1.34253c-0.63859,0 -2.0397,1.26771 -3.83152,4.69884c-2.06137,3.94733 -2.57703,7.72237 -4.4701,10.74021c-0.49714,0.79253 -1.27717,2.01379 -1.27717,2.68505c0,0.67126 0,1.34253 0.63859,1.34253c0.63859,0 1.28676,0.16404 2.55435,0c2.61324,-0.33816 7.9667,-6.43949 8.94021,-12.08273c0.56972,-3.30246 -0.63859,-4.02758 -3.19293,-4.02758c-1.91576,0 -2.70616,-0.04634 -3.19293,2.01379c-0.93633,3.96273 -1.91576,6.71263 -1.91576,9.39768c0,0.67126 -1.27717,0 -1.27717,1.34253c0,1.34253 8.05896,0.88943 11.49456,-1.34253c0.76822,-0.49908 0.63859,-2.01379 0.63859,-3.35631c0,-2.01379 0.03395,-4.81111 -3.83152,-6.04137c-6.9686,-2.21788 -10.21738,-3.35631 -10.85597,-3.35631c-0.63859,0 -1.4963,-0.0832 -2.55435,3.35631c-0.81008,2.63344 -0.63859,3.35631 -0.63859,4.69884c0,0.67126 0,1.34253 0,3.35631c0,1.34253 0,3.35631 0,4.69884c0,0.67126 0.63859,1.34253 1.91576,1.34253c1.27717,0 5.26959,-1.93358 7.02445,-6.04137c1.40876,-3.29762 1.27717,-5.3701 1.27717,-6.04137c0,-0.67126 -2.39548,-1.39174 -4.4701,0.67126c-3.74012,3.71914 -3.7789,6.30106 -4.4701,8.05515c-0.24438,0.62016 -0.09537,0.98963 -0.63859,1.34253c-1.21465,0.78911 -1.09013,2.2104 -0.63859,2.68505c0.90308,0.94931 5.10869,0 9.5788,0c3.83152,0 6.0624,-2.60353 6.38586,-4.69884c0.20459,-1.3252 0,-2.01379 0,-4.02758c0,-2.01379 -1.38459,-4.42014 -6.38586,-6.71263c-2.61776,-1.19995 -3.83152,-1.34253 -4.4701,-1.34253c-0.63859,0 -1.57016,-0.20579 -1.91576,0.67126c-1.95501,4.96133 -1.27717,9.39768 -1.27717,12.08273c0,4.02758 -0.31052,5.25179 -0.63859,6.71263c-0.14671,0.65331 1.27717,1.34253 5.10869,1.34253c5.10869,0 8.60529,-3.08317 9.5788,-8.72642c0.9115,-5.28393 0.37012,-8.78402 0,-10.06894c-0.66723,-2.31643 -5.10869,-2.01379 -8.94021,-2.01379c-1.27717,0 -1.91576,0 -3.19293,0c-1.91576,0 -3.17769,3.87988 -5.74728,6.71263c-1.5889,1.75162 -1.91576,4.02758 -2.55435,4.69884c-0.63859,0.67126 -0.63859,2.01379 -0.63859,2.68505c0,0.67126 0.03418,1.03408 1.27717,1.34253c1.38974,0.34486 4.4701,1.34253 7.02445,1.34253c3.83152,0 7.16843,0.88877 9.5788,0c3.85845,-1.42273 4.14925,-6.66282 4.4701,-10.06894c0.31462,-3.33998 0,-5.3701 0,-8.05515c0,-1.34253 -2.55435,-2.01379 -5.74728,-2.01379c-3.83152,0 -5.29574,-0.47466 -5.74728,0c-0.45154,0.47466 -1.47626,4.63503 -2.55435,8.72642c-1.57156,5.96418 -1.88711,10.43757 -2.55435,12.75399c-0.18506,0.64246 1.19961,1.67376 3.19293,2.01379c1.26069,0.21504 3.92584,0.03799 5.10869,-3.35631c1.38915,-3.9864 1.91576,-7.38389 1.91576,-8.72642c0,-1.34253 -0.63859,-2.68505 -2.55435,-2.68505c-0.63859,0 -2.55435,-0.67126 -3.19293,-0.67126c-2.55435,0 -3.37998,-0.47466 -3.83152,0c-0.45154,0.47466 0.41818,2.80385 -0.63859,6.04137c-0.46343,1.41975 -0.63859,3.35631 -0.63859,4.02758c0,0.67126 1.81255,2.63315 7.02445,0c4.8838,-2.46738 6.0624,-9.31616 6.38586,-11.41147c0.20459,-1.3252 -0.03418,-2.3766 -1.27717,-2.68505c-1.38974,-0.34486 -3.19293,-1.34253 -4.4701,-1.34253c-1.27717,0 -2.6749,-0.3925 -3.19293,0c-1.63821,1.24117 -1.88711,4.3962 -2.55435,6.71263c-0.7402,2.56984 0.55514,4.78525 0,6.71263c-0.66723,2.31643 -1.27717,3.35631 -1.27717,5.3701c0,0.67126 0,1.34253 2.55435,1.34253c1.91576,0 4.34971,0.58088 5.74728,-1.34253c2.45153,-3.37388 1.91576,-10.06894 1.91576,-13.42526c0,-1.34253 -0.63859,-1.34253 -8.94021,-1.34253c-1.91576,0 -3.19293,0 -3.19293,0.67126c0,0.67126 0,2.01379 0,3.35631c0,1.34253 0,2.01379 0,5.3701c0,0.67126 0,1.34253 0,2.01379c0,0.67126 0.63859,0.67126 1.27717,0.67126c1.91576,0 5.41547,-4.45428 6.38586,-10.74021c0.51145,-3.31298 0,-4.69884 -0.63859,-4.69884c-0.63859,0 -1.91576,0 -3.83152,2.01379c-1.27717,1.34253 -1.91576,2.68505 -1.91576,3.35631c0,2.01379 0,6.71263 0.63859,6.71263c0.63859,0 1.91576,0 3.83152,0c3.19293,0 6.58382,-0.22655 8.30162,-1.34253c2.30466,-1.49724 3.43883,-3.60603 5.10869,-6.04137c1.58415,-2.31035 2.28985,-3.07827 3.19293,-4.02758c0.45154,-0.47466 0.63859,-0.67126 0.63859,0c0,1.34253 0,4.02758 0,6.04137c0,1.34253 0,4.69884 0,6.04137c0,0.67126 0,1.34253 0,2.01379c0,0.67126 0,1.34253 0,2.01379c0,0.67126 -1.16461,0.99767 -2.55435,1.34253c-0.62151,0.15422 -1.46422,0.47466 -1.91576,0c-0.45154,-0.47466 -0.29298,-2.47927 -0.63859,-3.35631c-0.24438,-0.62016 0,-2.01379 0,-1.34253c0,0.67126 0,1.34253 0,2.01379c0,2.01379 0,3.35631 0,5.3701c0,0.67126 0.57607,1.89594 -0.63859,2.68505c-0.54321,0.3529 -1.91576,0 -3.19293,0c-1.27717,0 -1.27717,-0.67126 -1.27717,-1.34253c0,-1.34253 0,-4.02758 0,-6.71263c0,-2.01379 -0.48876,-3.45851 0,-4.69884c0.6912,-1.7541 1.49267,-2.89315 2.55435,-4.69884c0.47477,-0.80753 1.33969,-2.5672 2.55435,-3.35631c0.54321,-0.3529 1.27717,0 1.27717,0.67126c0,1.34253 0,2.01379 0,3.35631c0,2.68505 0,5.3701 0,7.38389c0,1.34253 0,2.01379 0,3.35631c0,0.67126 -0.63859,0.67126 -1.27717,1.34253c-1.27717,1.34253 -1.91576,1.34253 -1.91576,-0.67126c0,-2.68505 -0.29345,-3.39223 0,-4.69884c0.32806,-1.46084 3.08953,-2.99753 6.38586,-4.02758c3.12118,-0.97531 3.83152,-0.67126 3.83152,0.67126c0,0.67126 0.19632,3.48117 -0.63859,4.69884c-1.58415,2.31035 -2.35857,4.33555 -3.19293,4.69884c-1.17997,0.51376 -2.44178,0.99767 -3.83152,1.34253c-1.86451,0.46267 -4.20561,2.29184 -5.10869,1.34253c-0.45154,-0.47466 0,-1.34253 0,-2.01379c0,-1.34253 0,-4.69884 0,-8.72642c0,-2.68505 1.55406,-4.91511 5.74728,-8.05515c5.52882,-4.14016 9.12726,-7.18728 9.5788,-6.71263c2.25774,2.37328 0,4.69884 0,6.71263c0,3.35631 -0.8954,7.74878 -3.83152,10.74021c-2.29274,2.33591 -5.35576,3.97227 -7.02445,4.69884c-1.17997,0.51376 -3.19293,0 -4.4701,-0.67126c-1.27717,-0.67126 -1.59405,-1.28063 -1.91576,-4.02758c-0.46814,-3.9974 -0.2749,-8.14443 0.63859,-10.74021c0.49543,-1.40775 2.48142,-3.57395 7.66304,-5.3701c4.41511,-1.53045 8.03713,-3.63436 8.94021,-2.68505c0.45154,0.47466 0,4.02758 0,6.04137c0,1.34253 -3.59844,4.12314 -8.94021,8.72642c-3.49204,3.00925 -5.5515,5.00682 -6.38586,5.3701c-1.17997,0.51376 -2.13488,0.0832 -3.19293,-3.35631c-0.81008,-2.63344 -1.27717,-5.3701 -1.27717,-6.71263c0,-2.01379 -0.39888,-5.32986 3.19293,-7.38389c3.54773,-2.02884 7.02445,-2.01379 8.94021,-2.01379c0.63859,0 1.91576,0 1.91576,2.01379c0,1.34253 1.67863,3.85758 0,6.71263c-3.00281,5.10728 -10.60878,6.55729 -14.0489,8.05515c-2.43254,1.05915 -4.4701,1.34253 -4.4701,0c0,-2.01379 0,-4.02758 0,-4.69884c0,-1.34253 -0.71603,-2.24462 0,-3.35631c1.92796,-2.99335 7.02445,-2.68505 10.85597,-2.68505c1.91576,0 3.19293,0 3.19293,0.67126c0,2.01379 -0.38727,5.73863 -3.83152,8.05515c-1.20281,0.80897 -2.10281,1.81718 -2.55435,1.34253c-0.45154,-0.47466 0,-2.01379 0,-2.68505l0,-2.01379l0,-0.67126" id="svg_16" stroke-width="6" fill="none"/>
 </g>

</svg>