<svg width="800" height="600" xmlns="http://www.w3.org/2000/svg">

 <g>
  <title>Layer 1</title>
  <path stroke-width="6" d="m364,103c0,1 0,2 0,7c0,4 0,9 0,15c0,6 0,12 0,17c0,5 0,9 0,14c0,6 0,13 0,21c0,7 0,15 0,31c0,9 0,21 0,36c0,10 0,19 0,25c0,5 0,13 0,19c0,6 0,12 0,21c0,8 0,16 0,25c0,8 0,16 0,25c0,8 0,15 0,21c0,4 0,8 0,13c0,3 0,7 0,10c0,1 0,4 0,5c0,4 0,5 0,6c0,2 0,4 0,8c0,1 0,5 0,8c0,3 0,5 0,8c0,1 0,2 0,3c0,1 0,2 0,3c0,1 0,2 0,3c0,2 0,4 0,5c0,1 0,2 0,3c0,1 0,2 0,4c0,1 0,2 0,4l0,1l0,1" id="svg_2" stroke="#000" fill="none"/>
  <path stroke="#000" stroke-width="6" d="m361,105c0,0 0,0 0.99379,0c3.97515,0 18.91462,-1.05634 35.77639,0c7.99672,0.50097 9.93789,1 10.93168,1l13.90062,0c10.93168,0 21.87578,0 28.8323,0c6.95652,0 11.92547,0 12.91926,0c0.99379,0 3.97515,0 9.93788,0c6.95653,0 12.91926,0 15.90063,0c0.99378,0 1.98757,0 4.96894,0c1.98758,0 7.95031,0 14.90683,0l6.95652,0l2.98137,0l0.99379,0" id="svg_3" fill="none"/>
 </g>
</svg>