<svg width="800" height="600" xmlns="http://www.w3.org/2000/svg">

 <g>
  <title>Layer 1</title>
  <path stroke="#000" stroke-width="6" d="m367,104c0,0.69613 0,1.39227 0,4.87293c0,2.78453 0,6.26519 0,10.44199c0,4.1768 0,8.35359 0,11.83425c0,3.48066 0,6.26519 0,9.74586c0,4.1768 0,9.04972 0,14.61878c0,4.87293 0,10.44199 0,21.58011c0,6.26519 0,14.61878 0,25.06077c0,6.96133 0,13.22652 0,17.40332c0,3.48066 0,9.04972 0,13.22652c0,4.1768 0,8.35359 0,14.61878c0,5.56906 0,11.13812 0,17.40332c0,5.56906 0,11.13812 0,17.40332c0,5.56906 0,10.44199 0,14.61878c0,2.78453 0,5.56906 0,9.04972c0,2.0884 0,4.87293 0,6.96133c0,0.69613 0,2.78453 0,3.48066c0,2.78453 0,3.48066 0,4.1768c0,1.39227 0,2.78453 0,5.56906c0,0.69613 0,3.48066 0,5.56906c0,2.0884 0,3.48066 0,5.56906c0,0.69613 0,1.39227 0,2.0884c0,0.69613 0,1.39227 0,2.0884c0,0.69613 0,1.39227 0,2.0884c0,1.39227 0,2.78453 0,3.48066c0,0.69613 0,1.39227 0,2.0884c0,0.69613 0,1.39227 0,2.78453c0,0.69613 0,1.39227 0,2.78453l0,0.69613l0,0.69613" id="svg_2" fill="none"/>
  <path d="m436,212c-1,0 -2,0 -3,0c-1,0 -1,1 -1,3c0,1 0,2 0,3c0,2 -0.66251,4.31001 1,7c0.7435,1.203 1,2 2,2c1,0 2,0 2,-1c0,-2 -0.22977,-3.02675 0,-4c0.51373,-2.17625 2,-2 2,-3c0,-2 -1.29291,-2.70711 -2,-2c-0.70709,0.70711 0,2 0,4c0,2 0,4 0,5c0,1 1.0535,1.4595 3,1c2.17624,-0.51375 2,-2 2,-3c0,-1 0,-3 0,-4c0,-1 0,-3 0,-4c0,-1 0,-2 -1,-2c-1,0 -3.29291,0.70711 -4,0c-0.70709,-0.70711 -1.29291,-1.70711 -2,-1c-0.70709,0.70711 -1.29291,2.29289 -2,3c-1.41422,1.41422 0,3 0,5c0,1 0,2 0,3c0,2 1.07611,1.61731 2,2c1.30655,0.5412 2,1 3,1l1,0" id="svg_20" stroke-width="6" stroke="#000" fill="none"/>
  <path d="m366,106c2,0 8,0 28,0c17,0 23,0 28,0c2,0 3,0 9,0c5,0 7,0 8,0c1,0 3,0 7,0c4,0 6,0 7,0c3,0 9,0 13,0l1,0l1,0" id="svg_29" stroke-width="6" stroke="#000" fill="none"/>
 </g>
</svg>