<svg width="800" height="600" xmlns="http://www.w3.org/2000/svg">
 <g>
  <title>Layer 1</title>
  <path fill="none" id="svg_2" d="m393,112c0,0.61878 0,1.23757 0,4.33149c0,2.47514 0,5.56906 0,9.28177c0,3.71271 0,7.42541 0,10.51934c0,3.09392 0,5.56906 0,8.66298c0,3.71271 0,8.0442 0,12.99448c0,4.33149 0,9.28177 0,19.18232c0,5.56906 0,12.99448 0,22.27624c0,6.18785 0,11.75691 0,15.46961c0,3.09392 0,8.0442 0,11.75691c0,3.71271 0,7.42541 0,12.99448c0,4.95028 0,9.90055 0,15.46961c0,4.95028 0,9.90055 0,15.46961c0,4.95028 0,9.28177 0,12.99448c0,2.47514 0,4.95028 0,8.0442c0,1.85635 0,4.33149 0,6.18785c0,0.61878 0,2.47514 0,3.09392c0,2.47514 0,3.09392 0,3.71271c0,1.23757 0,2.47514 0,4.95028c0,0.61878 0,3.09392 0,4.95028c0,1.85635 0,3.09392 0,4.95028c0,0.61878 0,1.23757 0,1.85635c0,0.61878 0,1.23757 0,1.85635c0,0.61878 0,1.23757 0,1.85635c0,1.23757 0,2.47514 0,3.09392c0,0.61878 0,1.23757 0,1.85635c0,0.61878 0,1.23757 0,2.47514c0,0.61878 0,1.23757 0,2.47514l0,0.61878l0,0.61878" stroke-width="6" stroke="#000"/>
  <path stroke="#000" d="m443.23175,102c1.58942,0 4.76825,1.54916 4.76825,4.64749c0,1.54916 0,3.09833 0,4.64749c0,1.54916 0,3.09833 0,6.19665c0,3.09833 0,4.64749 0,6.19665c0,3.09833 0,7.74582 0,10.84414c0,3.09833 -0.93106,4.0058 -3.17883,6.19665c-1.12386,1.09543 -1.58942,1.54916 -3.17883,1.54916c-1.58942,0 -6.35766,0 -15.89415,0c-1.58942,0 -3.17883,0 -4.76825,0c-1.58942,0 -1.58942,-1.54916 -1.58942,-3.09833c0,-3.09833 0,-6.19665 0,-10.84414c0,-1.54916 -1.58942,-4.64749 -1.58942,-6.19665c0,-1.54916 0,-3.09833 0,-4.64749c0,-1.54916 0,-3.09833 0,-4.64749c0,-1.54916 0,0 0,3.09833c0,6.19665 0,7.74582 0,12.39331c0,3.09833 0,4.64749 0,6.19665c0,1.54916 0,3.09833 0,4.64749c0,1.54916 -1.58942,1.54916 -3.17883,1.54916c-1.58942,0 -3.17883,3.09833 -4.76825,3.09833c-3.17883,0 -6.35766,0 -11.12591,0c-1.58942,0 -5.23377,1.09543 -6.35766,0c-2.24777,-2.19085 0,-6.19665 0,-7.74582c0,-4.64749 0,-6.19665 0,-7.74582c0,-1.54916 0,-4.64749 0,-7.74582c0,-3.09833 0,-4.64749 0,-6.19665l0,-3.09833l0,-1.54916" id="svg_13" stroke-width="6" fill="none"/>
 </g>

</svg>