<svg width="800" height="600" xmlns="http://www.w3.org/2000/svg">
 <g>
  <title>Layer 1</title>
  <path fill="none" id="svg_2" d="m393,112c0,0.61878 0,1.23757 0,4.33149c0,2.47514 0,5.56906 0,9.28177c0,3.71271 0,7.42541 0,10.51934c0,3.09392 0,5.56906 0,8.66298c0,3.71271 0,8.0442 0,12.99448c0,4.33149 0,9.28177 0,19.18232c0,5.56906 0,12.99448 0,22.27624c0,6.18785 0,11.75691 0,15.46961c0,3.09392 0,8.0442 0,11.75691c0,3.71271 0,7.42541 0,12.99448c0,4.95028 0,9.90055 0,15.46961c0,4.95028 0,9.90055 0,15.46961c0,4.95028 0,9.28177 0,12.99448c0,2.47514 0,4.95028 0,8.0442c0,1.85635 0,4.33149 0,6.18785c0,0.61878 0,2.47514 0,3.09392c0,2.47514 0,3.09392 0,3.71271c0,1.23757 0,2.47514 0,4.95028c0,0.61878 0,3.09392 0,4.95028c0,1.85635 0,3.09392 0,4.95028c0,0.61878 0,1.23757 0,1.85635c0,0.61878 0,1.23757 0,1.85635c0,0.61878 0,1.23757 0,1.85635c0,1.23757 0,2.47514 0,3.09392c0,0.61878 0,1.23757 0,1.85635c0,0.61878 0,1.23757 0,2.47514c0,0.61878 0,1.23757 0,2.47514l0,0.61878l0,0.61878" stroke-width="6" stroke="#000"/>
  <path stroke="#000" d="m443.23175,102c1.58942,0 4.76825,1.54916 4.76825,4.64749c0,1.54916 0,3.09833 0,4.64749c0,1.54916 0,3.09833 0,6.19665c0,3.09833 0,4.64749 0,6.19665c0,3.09833 0,7.74582 0,10.84414c0,3.09833 -0.93106,4.0058 -3.17883,6.19665c-1.12386,1.09543 -1.58942,1.54916 -3.17883,1.54916c-1.58942,0 -6.35766,0 -15.89415,0c-1.58942,0 -3.17883,0 -4.76825,0c-1.58942,0 -1.58942,-1.54916 -1.58942,-3.09833c0,-3.09833 0,-6.19665 0,-10.84414c0,-1.54916 -1.58942,-4.64749 -1.58942,-6.19665c0,-1.54916 0,-3.09833 0,-4.64749c0,-1.54916 0,-3.09833 0,-4.64749c0,-1.54916 0,0 0,3.09833c0,6.19665 0,7.74582 0,12.39331c0,3.09833 0,4.64749 0,6.19665c0,1.54916 0,3.09833 0,4.64749c0,1.54916 -1.58942,1.54916 -3.17883,1.54916c-1.58942,0 -3.17883,3.09833 -4.76825,3.09833c-3.17883,0 -6.35766,0 -11.12591,0c-1.58942,0 -5.23377,1.09543 -6.35766,0c-2.24777,-2.19085 0,-6.19665 0,-7.74582c0,-4.64749 0,-6.19665 0,-7.74582c0,-1.54916 0,-4.64749 0,-7.74582c0,-3.09833 0,-4.64749 0,-6.19665l0,-3.09833l0,-1.54916" id="svg_13" stroke-width="6" fill="none"/>
  <path d="m491,216c0,1 0,2 0,4c0,3 -0.9021,4.82443 1,6c0.85065,0.52573 3,1 3,0c0,-1 -2,0 -4,0c-1,0 -2,0 -3,0c-1,0 0,0 2,0c3,0 4.69342,1.4588 6,2c0.92389,0.38269 3,-1 3,-5c0,-3 0,-4 0,-5c0,-1 -1,-1 -1,-2c0,-1 -1,-1 -3,-1c-1,0 -2,0 -4,0c-1,0 -3.29291,-0.70711 -4,0c-0.70709,0.70711 0,2 0,3c0,2 0,4 0,6c0,2 0.186,3.69255 2,5c1.14728,0.8269 2.0979,1.82443 4,3c0.85065,0.52573 2,0 3,0c1,0 1,-1 1,-3c0,-1 0,-3 0,-4c0,-2 0,-3 -1,-3c-1,0 -1.29291,-1.29289 -2,-2c-2.12131,-2.12132 -6,-2 -7,-2c-1,0 -2,1 -2,3c0,1 0,2 0,3c0,3 1.97897,4.06541 5,5c6.9549,2.1516 13,4 15,4c1,0 2,0 4,0c2,0 3,-4 3,-6c0,-5 0,-6 0,-9c0,-1 -1,-1 -2,-1c-1,0 -1.69342,-1.4588 -3,-2c-4.61938,-1.91342 -7.15222,-0.76537 -9,0c-2.6131,1.0824 -2.49347,2.87856 -3,6c-0.32037,1.97418 0,3 0,4c0,2 -1.14807,3.22836 0,6c1.6236,3.91969 7.85272,3.1731 9,4c1.81396,1.30745 3.58582,2.41422 5,1c0.70709,-0.70711 0,-3 0,-5c0,-1 0.56958,-4.17807 0,-5c-4.86664,-7.02254 -10.54913,-4.95517 -14,-6c-1.91418,-0.57957 -3,0 -4,0c-1,0 -2.82443,-0.90211 -4,1c-1.05145,1.70131 0,3 0,5c0,3 0.69345,5.4588 2,6c0.92389,0.38269 2.64749,1.97252 7,3c4.86627,1.14876 7.0979,3.17557 9,2c0.85065,-0.52573 1.49622,-4.90779 2,-9c0.36658,-2.97752 0,-4 0,-5c0,-1 -0.88495,-2.27431 -3,-3c-4.823,-1.65482 -9.87854,-3.49345 -13,-4c-0.98709,-0.16019 -2.29291,-0.70711 -3,0c-2.82843,2.82843 0,5 0,6c0,1 -0.28979,3.04291 0,4c1.04483,3.45085 4.87604,4.34315 10,6c3.9231,1.26855 6,1 6,-1c0,-2 0,-4 0,-6c0,-1 -2.08582,-0.42043 -4,-1c-3.45087,-1.04483 -4.7699,-2.54863 -9,-4c-4.82303,-1.65482 -8.14935,-2.52573 -9,-2c-1.9021,1.17557 -2,5 -2,6c0,2 -0.22977,3.02675 0,4c0.51373,2.17625 4.0979,2.82443 6,4c0.85065,0.52573 3.15225,-0.76537 5,0c2.6131,1.0824 4,2 5,2c2,0 4,-2 4,-4c0,-2 0,-3 0,-4c0,-2 0.70709,-3.29289 0,-4c-2.12134,-2.12132 -3.58582,-0.58578 -5,-2c-0.70709,-0.70711 -2,0 -2,3c0,4 0,6 0,7c0,2 -0.30655,3.4588 1,4c0.92389,0.38269 1.92578,1.49756 7,2c3.98053,0.39415 5,0 5,-2c0,-1 0,-3 0,-6c0,-2 0.40601,-4.513 -2,-6c-2.69,-1.66251 -5,-2 -6,-2c-1,0 -1.87854,-1.49345 -5,-2c-0.98709,-0.16019 -2.29291,-0.70711 -3,0c-1.41422,1.41422 0,4 0,7c0,3 0,4 0,6c0,1 0.69345,2.4588 2,3c0.92389,0.38269 4.29291,0.70711 5,0c0.70709,-0.70711 0,-4 0,-6c0,-3 0.94373,-4.23665 0,-6c-1.70129,-3.17892 -6.54916,-2.95517 -10,-4c-1.91418,-0.57957 -3,0 -3,2c0,1 0,2 0,4c0,2 0,5 0,7c0,3 0,4 0,5c0,1 -0.28799,3.98163 5,5c1.9639,0.37822 4,0 5,0c2,0 4,-3 4,-8c0,-2 0,-4 0,-5c0,-1 0.38269,-2.07613 0,-3c-0.5412,-1.30656 -3.87854,-1.49345 -7,-2c-1.97418,-0.32036 -3,0 -4,0c-1,0 -2.48627,-0.17625 -3,2c-0.4595,1.9465 0,5 0,7c0,1 -0.09717,2.2242 2,3c3.867,1.4305 5.97736,2.09544 10,3c4.97479,1.11867 9,2 9,1c0,-1 -4,-1 -5,-1c-1,0 -2.38269,0.07613 -2,1c0.5412,1.30656 3,1 4,1c1,0 2.29291,0.70711 3,0c0.70709,-0.70711 -2,-1 -3,-1l-1,0l-1,0l-1,0" id="svg_14" stroke-width="6" stroke="#000" fill="none"/>
 </g>

</svg>