<svg width="800" height="600" xmlns="http://www.w3.org/2000/svg">

 <g>
  <title>Layer 1</title>
  <path d="m438,152c-1,0 -7,0 -13,0c-11,0 -23,0 -34,0c-6,0 -9.02582,-0.32036 -11,0c-3.12143,0.50655 -4.05664,0.91753 -7,3c-4.0817,2.88786 -11.32617,8.73311 -17,16c-5.50443,7.04993 -10.82462,16.06134 -13,22c-1.85226,5.05659 -3.48627,8.82375 -4,11c-0.68927,2.91975 -0.9176,5.38687 -2,8c-0.76538,1.84776 0,6 0,9c0,5 5.91599,13.09552 15,21c5.43994,4.7336 15.55011,8.83286 25,14c7.5477,4.12701 10.95712,6.24542 16,7c9.93921,1.48724 29,1 38,1c3,0 4,0 5,0c3,0 9.75714,-1.98691 16,-3c2.96124,-0.48056 1,0 -3,0c-20,0 -41,0 -45,0c-1,0 -3.07611,-0.38269 -4,0c-2.61313,1.0824 -5.81265,5.20682 -8,7c-2.78833,2.28589 -10.04816,4.93854 -19,12c-5.02728,3.96567 -8.7265,6.29361 -13,10c-3.77728,3.276 -5.73145,6.0769 -7,10c-1.65686,5.12396 -1.75565,8.01498 -2,10c-0.50378,4.09222 -1,7 -1,14c0,2 0,4 0,7c0,1 -1.57993,2.78381 1,6c6.99585,8.72113 25.81573,14.42819 44,22c17.82932,7.42401 24.29291,9.29291 25,10c0.70709,0.70709 3.05042,-0.23734 13,2c8.04529,1.80911 11,2 12,2c1,0 2,0 4,0c1,0 2.58582,1.41422 4,0c0.70709,-0.70709 1,-2 2,-2c1,0 1.87854,-1.49347 5,-2c2.96124,-0.48056 4,0 5,0l1,0" id="svg_19" stroke-width="6" stroke="#000" fill="none"/>
 </g>
</svg>