<svg width="800" height="600" xmlns="http://www.w3.org/2000/svg">

 <g>
  <title>Layer 1</title>
  <path d="m438,152c-1,0 -7,0 -13,0c-11,0 -23,0 -34,0c-6,0 -9.02582,-0.32036 -11,0c-3.12143,0.50655 -4.05664,0.91753 -7,3c-4.0817,2.88786 -11.32617,8.73311 -17,16c-5.50443,7.04993 -10.82462,16.06134 -13,22c-1.85226,5.05659 -3.48627,8.82375 -4,11c-0.68927,2.91975 -0.9176,5.38687 -2,8c-0.76538,1.84776 0,6 0,9c0,5 5.91599,13.09552 15,21c5.43994,4.7336 15.55011,8.83286 25,14c7.5477,4.12701 10.95712,6.24542 16,7c9.93921,1.48724 29,1 38,1c3,0 4,0 5,0c3,0 9.75714,-1.98691 16,-3c2.96124,-0.48056 1,0 -3,0c-20,0 -41,0 -45,0c-1,0 -3.07611,-0.38269 -4,0c-2.61313,1.0824 -5.81265,5.20682 -8,7c-2.78833,2.28589 -10.04816,4.93854 -19,12c-5.02728,3.96567 -8.7265,6.29361 -13,10c-3.77728,3.276 -5.73145,6.0769 -7,10c-1.65686,5.12396 -1.75565,8.01498 -2,10c-0.50378,4.09222 -1,7 -1,14c0,2 0,4 0,7c0,1 -1.57993,2.78381 1,6c6.99585,8.72113 25.81573,14.42819 44,22c17.82932,7.42401 24.29291,9.29291 25,10c0.70709,0.70709 3.05042,-0.23734 13,2c8.04529,1.80911 11,2 12,2c1,0 2,0 4,0c1,0 2.58582,1.41422 4,0c0.70709,-0.70709 1,-2 2,-2c1,0 1.87854,-1.49347 5,-2c2.96124,-0.48056 4,0 5,0l1,0" id="svg_19" stroke-width="6" stroke="#000" fill="none"/>
  <path stroke="#000" d="m567.22481,244.80754c-4.2933,-0.50356 -8.9598,-2.94535 -11.16258,-2.01426c-0.69656,0.29444 -1.0359,2.07596 0,5.03564c1.31482,3.75671 4.91497,7.66561 7.72794,9.56772c1.59128,1.07599 2.31273,1.74173 3.43464,2.01426c0.79331,0.19271 2.96993,0.15437 3.43464,-0.50356c0.6572,-0.93046 0,-2.01426 0,-3.52495c0,-1.00713 0,-1.51069 0,-3.02138c0,-0.50356 -0.29726,-0.85882 -1.71732,-2.01426c-1.12264,-0.91346 -2.32306,-1.18146 -4.2933,-2.01426c-3.11521,-1.31677 -6.86928,-2.01426 -11.16258,-2.51782c-4.2933,-0.50356 -7.72794,-1.00713 -7.72794,0c0,1.51069 0.66643,3.25688 3.43464,6.04277c2.32809,2.34298 5.377,5.11528 10.30392,6.54633c3.17254,0.92148 5.04767,1.25562 7.72794,1.51069c1.69515,0.16133 3.00206,-0.96069 3.43464,-3.02138c0.20984,-0.99958 0,-1.51069 0,-2.51782c0,-1.00713 0.17431,-1.63986 -0.85866,-2.01426c-2.3098,-0.83718 -4.36222,-1.1636 -6.86928,-1.51069c-1.86867,-0.2587 -2.47169,-1.25562 -5.15196,-1.51069c-2.5427,-0.24199 -5.15196,-0.50356 -6.01062,-0.50356c-0.85866,0 -1.71732,0 -1.71732,1.00713c0,1.51069 -1.00048,4.3524 1.71732,6.54633c3.94169,3.18191 6.01062,2.51782 6.86928,2.51782c0.85866,0 4.26971,0.17751 5.15196,-2.01426c0.39458,-0.98019 0,-2.01426 0,-2.51782c0,-0.50356 0,-1.00713 0,-1.51069c0,-0.50356 0,-1.00713 -1.71732,-1.51069c-1.71732,-0.50356 -4.23675,-1.07979 -6.01062,-1.51069c-2.50863,-0.60939 -5.15196,-0.50356 -6.86928,-0.50356c-1.71732,0 -2.82749,-0.35607 -3.43464,0c-0.60715,0.35607 -1.08611,3.62831 0,5.5392c2.71533,4.77724 11.1033,4.65179 13.73855,5.03564c5.069,0.73835 10.07054,0.90633 12.02124,-0.50356c2.91349,-2.10579 2.57598,-3.52495 2.57598,-5.5392c0,-1.00713 -1.4644,-1.68502 -3.43464,-2.51782c-3.11521,-1.31677 -6.71792,-1.75556 -8.5866,-2.01426c-2.50706,-0.34709 -3.4806,-0.27217 -5.15196,-0.50356c-1.86867,-0.2587 -3.43464,-1.00713 -5.15196,-1.00713c-0.85866,0 -1.71732,0 -1.71732,0.50356c0,2.51782 -0.69682,5.29859 1.71732,7.0499c3.45655,2.50749 10.24019,3.27194 14.59721,3.52495c2.56345,0.14887 4.72116,-0.97589 5.15196,-4.02851c0.14166,-1.0037 0,-3.02138 0,-4.53208c0,-1.00713 0.60715,-2.16175 0,-2.51782c-0.60715,-0.35607 -3.5176,-0.26878 -8.5866,-1.00713c-2.63525,-0.38385 -3.17139,-1.23816 -4.2933,-1.51069c-0.79331,-0.19271 -3.93765,-1.71928 -5.15196,-1.00713c-0.60715,0.35607 -0.23699,3.13354 2.57598,5.03564c2.38689,1.61398 6.01062,2.51782 6.86928,2.51782c0.85866,0 1.86281,-0.69366 0.85866,-1.51069c-1.58766,-1.29183 -5.19792,-1.2793 -6.86928,-1.51069c-3.7373,-0.51741 -4.2933,-1.00713 -4.2933,-0.50356c0,3.02138 -1.62068,5.27398 0,7.0499c2.92167,3.20158 12.34805,3.48135 16.31453,2.51782c2.24376,-0.54506 2.14104,-2.45667 2.57598,-4.02851c0.13752,-0.49706 0,-1.00713 0,-1.51069c0,-1.00713 -0.88497,-0.96298 -3.43464,-1.51069c-4.34188,-0.93273 -8.28509,-0.60215 -10.30392,-2.51782c-0.45145,-0.42836 -0.85866,0.50356 -1.71732,4.53208c-0.85866,4.02851 -1.71732,6.54633 -1.71732,7.55346c0,1.00713 5.47878,1.97066 9.44526,1.00713c4.48758,-1.09011 6.01062,-4.53208 6.01062,-6.54633c0,-1.51069 0.3286,-2.05258 0,-2.51782c-0.46471,-0.65793 -4.14194,-1.75556 -6.01062,-2.01426c-1.67136,-0.23139 -3.28328,-0.24487 -5.15196,-0.50356c-1.67136,-0.23139 -2.82749,-0.35607 -3.43464,0c-0.60715,0.35607 0,2.51782 0,4.02851c0,1.00713 4.24005,3.27231 9.44526,3.52495c2.56723,0.1246 4.2933,0 6.01062,-2.01426c0.85866,-1.00713 0.85866,-2.01426 0.85866,-2.51782c0,-1.00713 -0.68435,-1.13629 -1.71732,-1.51069c-2.3098,-0.83718 -5.40347,-1.36319 -6.01062,-1.00713c-1.2143,0.71215 -0.84288,2.87636 -1.71732,5.5392c-0.97427,2.96686 -1.79897,5.51291 0.85866,7.55346c1.16546,0.89484 4.65591,2.41149 7.72794,1.51069c3.84002,-1.126 2.57598,-3.52495 2.57598,-5.03564c0,-1.00713 0.7746,-1.92585 -0.85866,-2.51782c-1.46083,-0.52947 -2.58887,-0.38052 -4.2933,-0.50356c-3.51383,-0.25369 -5.15196,-1.00713 -5.15196,-0.50356c0,1.00713 -0.10429,1.75919 2.57598,2.01426c5.08545,0.48397 7.97945,0.35607 8.5866,0c0.60715,-0.35607 0.90284,-3.1718 0,-4.02851c-1.00944,-0.95783 -5.90633,-1.75919 -8.5866,-2.01426c-1.69515,-0.16133 -3.17139,-0.7346 -4.2933,-1.00713c-0.79331,-0.19271 -1.71732,0 -2.57598,0c-0.85866,0 -2.01196,-0.06242 -3.43464,2.51782c-1.08926,1.97553 -3.38632,3.64412 -2.57598,4.53208c1.46083,1.60079 6.97981,1.4449 9.44526,1.00713c2.96312,-0.52614 2.57598,-4.02851 2.57598,-5.5392c0,-0.50356 0.38714,-1.99168 -2.57598,-2.51782c-1.64363,-0.29185 -3.44575,-0.4229 -4.2933,-0.50356c-5.36049,-0.51016 -9.52932,-2.42941 -11.16258,-3.02138c-1.46083,-0.52948 -3.30262,1.32708 -1.71732,2.51782c2.17878,1.63651 7.22309,0.99128 10.30392,2.01426c1.05671,0.35087 1.71732,0.50356 2.57598,0.50356c0.85866,0 1.46581,-0.65106 0.85866,-1.00713c-1.82151,-1.06821 -4.2933,-1.00713 -6.01062,-1.00713c-0.85866,0 -1.71732,0 -1.71732,1.00713c0,0.50356 0,1.51069 0,4.02851c0,0.50356 0,1.51069 1.71732,1.51069c0.85866,0 1.54301,-0.12916 2.57598,-0.50356c2.3098,-0.83718 5.90643,0.56465 7.72794,-0.50356c0.60715,-0.35607 -3.17936,-1.7833 -6.01062,-2.51782c-3.23769,-0.83996 -6.31364,-0.63322 -6.86928,0c-2.38998,2.72358 -0.85866,8.05702 -0.85866,11.58197c0,4.02851 2.04865,4.36677 6.86928,2.51782c5.61258,-2.1527 8.98055,-3.37058 9.44526,-4.02851c0.3286,-0.46524 -0.33023,-0.61021 -0.85866,-1.00713c-2.17878,-1.63651 -8.37806,-2.00766 -13.73855,-2.51782c-0.84755,-0.08066 -0.67691,0.3596 1.71732,1.51069c0.93911,0.4515 3.54517,0.94134 6.01062,0.50356c2.96312,-0.52614 2.57598,-3.02138 2.57598,-4.53208c0,-2.01426 0,-2.51782 -1.71732,-3.02138c-1.71732,-0.50356 -2.57598,-1.00713 -3.43464,-1.00713c-1.71732,0 -4.21573,-0.34844 -6.01062,1.51069c-3.48867,3.6135 -2.57598,9.56772 -2.57598,13.09267c0,2.01426 0,3.52495 3.43464,3.52495c8.5866,0 15.3237,-1.06027 18.89051,-4.02851c2.03942,-1.69716 0.85866,-3.02138 0.85866,-3.52495c0,-0.50356 -0.47152,-0.98455 -3.43464,-1.51069c-0.82182,-0.14593 -2.57598,0 -6.01062,0c-3.43464,0 -8.76416,-0.09434 -10.30392,1.00713c-1.9628,1.4041 1.74447,3.20457 6.01062,1.51069c3.82901,-1.5203 3.36389,-3.71976 4.2933,-5.03564c0.6572,-0.93046 -1.11017,-0.65106 -1.71732,-1.00713c-0.60715,-0.35607 -1.71732,-1.00713 -2.57598,-1.00713c-0.85866,0 -0.85866,1.00713 0.85866,1.51069l1.71732,0l0.85866,0.50356l0.85866,0" id="svg_30" stroke-width="6" fill="none"/>
 </g>
</svg>