<svg width="800" height="600" xmlns="http://www.w3.org/2000/svg">

 <g>
  <title>Layer 1</title>
  <path stroke="#000" d="m463.11768,200.42681c0,-2.48155 -2.23941,-4.65991 -4.44551,-4.9631c-9.09597,-1.25013 -17.9604,-5.73423 -24.45029,-7.44465c-9.67455,-2.54974 -17.78203,-9.9262 -22.22754,-9.9262c-2.22275,0 -4.44551,-4.9631 -6.66826,-4.9631c-2.22275,0 -8.89102,0 -13.33652,0c-4.44551,0 -13.35816,-0.48907 -17.78203,0c-11.2787,1.24683 -20.00478,9.9262 -28.8958,19.85239c-8.89102,9.9262 -17.09865,20.31397 -20.00478,24.81549c-3.67601,5.69401 -7.68806,11.64699 -8.89102,14.88929c-1.70122,4.58531 0,7.44465 0,9.9262c0,4.9631 0,9.9262 0,19.85239c0,7.44465 0,12.40774 0,14.88929c0,4.9631 -2.27258,13.51046 4.44551,27.29704c6.80154,13.95784 20.57511,20.8918 31.11855,24.81549c4.21738,1.56948 11.11377,0 26.67305,0c8.89102,0 17.39026,1.20666 22.22754,2.48155c2.1633,0.57014 10.16044,-1.68615 20.00478,-7.44465c12.45222,-7.28402 27.14354,-11.69834 33.34131,-17.37084c7.29287,-6.67484 11.11377,-22.33394 15.55928,-32.26014c2.22275,-4.9631 4.44551,-9.9262 4.44551,-14.88929c0,-2.48155 0,-4.9631 0,-7.44465c0,-2.48155 0,-4.9631 0,-12.40774c0,-2.48155 0,-7.44465 0,-9.9262c0,-2.48155 0,-4.9631 0,-7.44465c0,-2.48155 0,-4.9631 0,-9.9262c0,-2.48155 3.14345,-8.8983 0,-12.40774c-1.57173,-1.75472 -2.22275,-2.48155 -4.44551,-2.48155c-2.22275,0 -4.44551,0 -4.44551,-2.48155l0,-2.48155l-2.22275,0" id="svg_33" stroke-width="6" fill="none"/>
 </g>
</svg>