<svg width="800" height="600" xmlns="http://www.w3.org/2000/svg">

 <g>
  <title>Layer 1</title>
  <path stroke="#000" d="m567.22481,244.80754c-4.2933,-0.50356 -8.9598,-2.94535 -11.16258,-2.01426c-0.69656,0.29444 -1.0359,2.07596 0,5.03564c1.31482,3.75671 4.91497,7.66561 7.72794,9.56772c1.59128,1.07599 2.31273,1.74173 3.43464,2.01426c0.79331,0.19271 2.96993,0.15437 3.43464,-0.50356c0.6572,-0.93046 0,-2.01426 0,-3.52495c0,-1.00713 0,-1.51069 0,-3.02138c0,-0.50356 -0.29726,-0.85882 -1.71732,-2.01426c-1.12264,-0.91346 -2.32306,-1.18146 -4.2933,-2.01426c-3.11521,-1.31677 -6.86928,-2.01426 -11.16258,-2.51782c-4.2933,-0.50356 -7.72794,-1.00713 -7.72794,0c0,1.51069 0.66643,3.25688 3.43464,6.04277c2.32809,2.34298 5.377,5.11528 10.30392,6.54633c3.17254,0.92148 5.04767,1.25562 7.72794,1.51069c1.69515,0.16133 3.00206,-0.96069 3.43464,-3.02138c0.20984,-0.99958 0,-1.51069 0,-2.51782c0,-1.00713 0.17431,-1.63986 -0.85866,-2.01426c-2.3098,-0.83718 -4.36222,-1.1636 -6.86928,-1.51069c-1.86867,-0.2587 -2.47169,-1.25562 -5.15196,-1.51069c-2.5427,-0.24199 -5.15196,-0.50356 -6.01062,-0.50356c-0.85866,0 -1.71732,0 -1.71732,1.00713c0,1.51069 -1.00048,4.3524 1.71732,6.54633c3.94169,3.18191 6.01062,2.51782 6.86928,2.51782c0.85866,0 4.26971,0.17751 5.15196,-2.01426c0.39458,-0.98019 0,-2.01426 0,-2.51782c0,-0.50356 0,-1.00713 0,-1.51069c0,-0.50356 0,-1.00713 -1.71732,-1.51069c-1.71732,-0.50356 -4.23675,-1.07979 -6.01062,-1.51069c-2.50863,-0.60939 -5.15196,-0.50356 -6.86928,-0.50356c-1.71732,0 -2.82749,-0.35607 -3.43464,0c-0.60715,0.35607 -1.08611,3.62831 0,5.5392c2.71533,4.77724 11.1033,4.65179 13.73855,5.03564c5.069,0.73835 10.07054,0.90633 12.02124,-0.50356c2.91349,-2.10579 2.57598,-3.52495 2.57598,-5.5392c0,-1.00713 -1.4644,-1.68502 -3.43464,-2.51782c-3.11521,-1.31677 -6.71792,-1.75556 -8.5866,-2.01426c-2.50706,-0.34709 -3.4806,-0.27217 -5.15196,-0.50356c-1.86867,-0.2587 -3.43464,-1.00713 -5.15196,-1.00713c-0.85866,0 -1.71732,0 -1.71732,0.50356c0,2.51782 -0.69682,5.29859 1.71732,7.0499c3.45655,2.50749 10.24019,3.27194 14.59721,3.52495c2.56345,0.14887 4.72116,-0.97589 5.15196,-4.02851c0.14166,-1.0037 0,-3.02138 0,-4.53208c0,-1.00713 0.60715,-2.16175 0,-2.51782c-0.60715,-0.35607 -3.5176,-0.26878 -8.5866,-1.00713c-2.63525,-0.38385 -3.17139,-1.23816 -4.2933,-1.51069c-0.79331,-0.19271 -3.93765,-1.71928 -5.15196,-1.00713c-0.60715,0.35607 -0.23699,3.13354 2.57598,5.03564c2.38689,1.61398 6.01062,2.51782 6.86928,2.51782c0.85866,0 1.86281,-0.69366 0.85866,-1.51069c-1.58766,-1.29183 -5.19792,-1.2793 -6.86928,-1.51069c-3.7373,-0.51741 -4.2933,-1.00713 -4.2933,-0.50356c0,3.02138 -1.62068,5.27398 0,7.0499c2.92167,3.20158 12.34805,3.48135 16.31453,2.51782c2.24376,-0.54506 2.14104,-2.45667 2.57598,-4.02851c0.13752,-0.49706 0,-1.00713 0,-1.51069c0,-1.00713 -0.88497,-0.96298 -3.43464,-1.51069c-4.34188,-0.93273 -8.28509,-0.60215 -10.30392,-2.51782c-0.45145,-0.42836 -0.85866,0.50356 -1.71732,4.53208c-0.85866,4.02851 -1.71732,6.54633 -1.71732,7.55346c0,1.00713 5.47878,1.97066 9.44526,1.00713c4.48758,-1.09011 6.01062,-4.53208 6.01062,-6.54633c0,-1.51069 0.3286,-2.05258 0,-2.51782c-0.46471,-0.65793 -4.14194,-1.75556 -6.01062,-2.01426c-1.67136,-0.23139 -3.28328,-0.24487 -5.15196,-0.50356c-1.67136,-0.23139 -2.82749,-0.35607 -3.43464,0c-0.60715,0.35607 0,2.51782 0,4.02851c0,1.00713 4.24005,3.27231 9.44526,3.52495c2.56723,0.1246 4.2933,0 6.01062,-2.01426c0.85866,-1.00713 0.85866,-2.01426 0.85866,-2.51782c0,-1.00713 -0.68435,-1.13629 -1.71732,-1.51069c-2.3098,-0.83718 -5.40347,-1.36319 -6.01062,-1.00713c-1.2143,0.71215 -0.84288,2.87636 -1.71732,5.5392c-0.97427,2.96686 -1.79897,5.51291 0.85866,7.55346c1.16546,0.89484 4.65591,2.41149 7.72794,1.51069c3.84002,-1.126 2.57598,-3.52495 2.57598,-5.03564c0,-1.00713 0.7746,-1.92585 -0.85866,-2.51782c-1.46083,-0.52947 -2.58887,-0.38052 -4.2933,-0.50356c-3.51383,-0.25369 -5.15196,-1.00713 -5.15196,-0.50356c0,1.00713 -0.10429,1.75919 2.57598,2.01426c5.08545,0.48397 7.97945,0.35607 8.5866,0c0.60715,-0.35607 0.90284,-3.1718 0,-4.02851c-1.00944,-0.95783 -5.90633,-1.75919 -8.5866,-2.01426c-1.69515,-0.16133 -3.17139,-0.7346 -4.2933,-1.00713c-0.79331,-0.19271 -1.71732,0 -2.57598,0c-0.85866,0 -2.01196,-0.06242 -3.43464,2.51782c-1.08926,1.97553 -3.38632,3.64412 -2.57598,4.53208c1.46083,1.60079 6.97981,1.4449 9.44526,1.00713c2.96312,-0.52614 2.57598,-4.02851 2.57598,-5.5392c0,-0.50356 0.38714,-1.99168 -2.57598,-2.51782c-1.64363,-0.29185 -3.44575,-0.4229 -4.2933,-0.50356c-5.36049,-0.51016 -9.52932,-2.42941 -11.16258,-3.02138c-1.46083,-0.52948 -3.30262,1.32708 -1.71732,2.51782c2.17878,1.63651 7.22309,0.99128 10.30392,2.01426c1.05671,0.35087 1.71732,0.50356 2.57598,0.50356c0.85866,0 1.46581,-0.65106 0.85866,-1.00713c-1.82151,-1.06821 -4.2933,-1.00713 -6.01062,-1.00713c-0.85866,0 -1.71732,0 -1.71732,1.00713c0,0.50356 0,1.51069 0,4.02851c0,0.50356 0,1.51069 1.71732,1.51069c0.85866,0 1.54301,-0.12916 2.57598,-0.50356c2.3098,-0.83718 5.90643,0.56465 7.72794,-0.50356c0.60715,-0.35607 -3.17936,-1.7833 -6.01062,-2.51782c-3.23769,-0.83996 -6.31364,-0.63322 -6.86928,0c-2.38998,2.72358 -0.85866,8.05702 -0.85866,11.58197c0,4.02851 2.04865,4.36677 6.86928,2.51782c5.61258,-2.1527 8.98055,-3.37058 9.44526,-4.02851c0.3286,-0.46524 -0.33023,-0.61021 -0.85866,-1.00713c-2.17878,-1.63651 -8.37806,-2.00766 -13.73855,-2.51782c-0.84755,-0.08066 -0.67691,0.3596 1.71732,1.51069c0.93911,0.4515 3.54517,0.94134 6.01062,0.50356c2.96312,-0.52614 2.57598,-3.02138 2.57598,-4.53208c0,-2.01426 0,-2.51782 -1.71732,-3.02138c-1.71732,-0.50356 -2.57598,-1.00713 -3.43464,-1.00713c-1.71732,0 -4.21573,-0.34844 -6.01062,1.51069c-3.48867,3.6135 -2.57598,9.56772 -2.57598,13.09267c0,2.01426 0,3.52495 3.43464,3.52495c8.5866,0 15.3237,-1.06027 18.89051,-4.02851c2.03942,-1.69716 0.85866,-3.02138 0.85866,-3.52495c0,-0.50356 -0.47152,-0.98455 -3.43464,-1.51069c-0.82182,-0.14593 -2.57598,0 -6.01062,0c-3.43464,0 -8.76416,-0.09434 -10.30392,1.00713c-1.9628,1.4041 1.74447,3.20457 6.01062,1.51069c3.82901,-1.5203 3.36389,-3.71976 4.2933,-5.03564c0.6572,-0.93046 -1.11017,-0.65106 -1.71732,-1.00713c-0.60715,-0.35607 -1.71732,-1.00713 -2.57598,-1.00713c-0.85866,0 -0.85866,1.00713 0.85866,1.51069l1.71732,0l0.85866,0.50356l0.85866,0" id="svg_30" stroke-width="6" fill="none"/>
  <path stroke="#000" d="m463.11768,200.42681c0,-2.48155 -2.23941,-4.65991 -4.44551,-4.9631c-9.09597,-1.25013 -17.9604,-5.73423 -24.45029,-7.44465c-9.67455,-2.54974 -17.78203,-9.9262 -22.22754,-9.9262c-2.22275,0 -4.44551,-4.9631 -6.66826,-4.9631c-2.22275,0 -8.89102,0 -13.33652,0c-4.44551,0 -13.35816,-0.48907 -17.78203,0c-11.2787,1.24683 -20.00478,9.9262 -28.8958,19.85239c-8.89102,9.9262 -17.09865,20.31397 -20.00478,24.81549c-3.67601,5.69401 -7.68806,11.64699 -8.89102,14.88929c-1.70122,4.58531 0,7.44465 0,9.9262c0,4.9631 0,9.9262 0,19.85239c0,7.44465 0,12.40774 0,14.88929c0,4.9631 -2.27258,13.51046 4.44551,27.29704c6.80154,13.95784 20.57511,20.8918 31.11855,24.81549c4.21738,1.56948 11.11377,0 26.67305,0c8.89102,0 17.39026,1.20666 22.22754,2.48155c2.1633,0.57014 10.16044,-1.68615 20.00478,-7.44465c12.45222,-7.28402 27.14354,-11.69834 33.34131,-17.37084c7.29287,-6.67484 11.11377,-22.33394 15.55928,-32.26014c2.22275,-4.9631 4.44551,-9.9262 4.44551,-14.88929c0,-2.48155 0,-4.9631 0,-7.44465c0,-2.48155 0,-4.9631 0,-12.40774c0,-2.48155 0,-7.44465 0,-9.9262c0,-2.48155 0,-4.9631 0,-7.44465c0,-2.48155 0,-4.9631 0,-9.9262c0,-2.48155 3.14345,-8.8983 0,-12.40774c-1.57173,-1.75472 -2.22275,-2.48155 -4.44551,-2.48155c-2.22275,0 -4.44551,0 -4.44551,-2.48155l0,-2.48155l-2.22275,0" id="svg_33" stroke-width="6" fill="none"/>
 </g>
</svg>