<svg width="800" height="600" xmlns="http://www.w3.org/2000/svg">
 <g>
  <title>Layer 1</title>
  <path fill="none" id="svg_2" d="m393,112c0,0.61878 0,1.23757 0,4.33149c0,2.47514 0,5.56906 0,9.28177c0,3.71271 0,7.42541 0,10.51934c0,3.09392 0,5.56906 0,8.66298c0,3.71271 0,8.0442 0,12.99448c0,4.33149 0,9.28177 0,19.18232c0,5.56906 0,12.99448 0,22.27624c0,6.18785 0,11.75691 0,15.46961c0,3.09392 0,8.0442 0,11.75691c0,3.71271 0,7.42541 0,12.99448c0,4.95028 0,9.90055 0,15.46961c0,4.95028 0,9.90055 0,15.46961c0,4.95028 0,9.28177 0,12.99448c0,2.47514 0,4.95028 0,8.0442c0,1.85635 0,4.33149 0,6.18785c0,0.61878 0,2.47514 0,3.09392c0,2.47514 0,3.09392 0,3.71271c0,1.23757 0,2.47514 0,4.95028c0,0.61878 0,3.09392 0,4.95028c0,1.85635 0,3.09392 0,4.95028c0,0.61878 0,1.23757 0,1.85635c0,0.61878 0,1.23757 0,1.85635c0,0.61878 0,1.23757 0,1.85635c0,1.23757 0,2.47514 0,3.09392c0,0.61878 0,1.23757 0,1.85635c0,0.61878 0,1.23757 0,2.47514c0,0.61878 0,1.23757 0,2.47514l0,0.61878l0,0.61878" stroke-width="6" stroke="#000"/>
  <path d="m392,114c-2,0 -3,0 -6,0c-1,0 -2,0 -6,0c-1,0 -5,0 -6,0c-6,0 -12,0 -18,0c-3,0 -7,0 -10,0c-4,0 -11,0 -16,0c-6,0 -12,0 -18,0c-4,0 -7,0 -8,0c-1,0 -2,0 -8,0l-9,0l-7,0l-3,0" id="svg_10" stroke-width="6" stroke="#000" fill="none"/>
 </g>

</svg>