<svg width="800" height="600" xmlns="http://www.w3.org/2000/svg">
 <g>
  <title>Layer 1</title>
  <path fill="none" id="svg_2" d="m393,112c0,0.61878 0,1.23757 0,4.33149c0,2.47514 0,5.56906 0,9.28177c0,3.71271 0,7.42541 0,10.51934c0,3.09392 0,5.56906 0,8.66298c0,3.71271 0,8.0442 0,12.99448c0,4.33149 0,9.28177 0,19.18232c0,5.56906 0,12.99448 0,22.27624c0,6.18785 0,11.75691 0,15.46961c0,3.09392 0,8.0442 0,11.75691c0,3.71271 0,7.42541 0,12.99448c0,4.95028 0,9.90055 0,15.46961c0,4.95028 0,9.90055 0,15.46961c0,4.95028 0,9.28177 0,12.99448c0,2.47514 0,4.95028 0,8.0442c0,1.85635 0,4.33149 0,6.18785c0,0.61878 0,2.47514 0,3.09392c0,2.47514 0,3.09392 0,3.71271c0,1.23757 0,2.47514 0,4.95028c0,0.61878 0,3.09392 0,4.95028c0,1.85635 0,3.09392 0,4.95028c0,0.61878 0,1.23757 0,1.85635c0,0.61878 0,1.23757 0,1.85635c0,0.61878 0,1.23757 0,1.85635c0,1.23757 0,2.47514 0,3.09392c0,0.61878 0,1.23757 0,1.85635c0,0.61878 0,1.23757 0,2.47514c0,0.61878 0,1.23757 0,2.47514l0,0.61878l0,0.61878" stroke-width="6" stroke="#000"/>
  <path d="m465,218c0,-1 -3,-2 -6,-2c-3,0 -4.29291,-0.70711 -5,0c-1.41422,1.41422 0,5 0,10c0,5 0.09479,8.66995 4,13c3.34869,3.71298 6,4 9,5c3,1 4,1 6,1c2,0 3,0 5,0c1,0 1,-3 1,-5c0,-2 0,-6 0,-11c0,-5 0.70709,-6.29289 0,-7c-0.70709,-0.70711 -2.02676,0.22975 -3,0c-2.17624,-0.51375 -4,-2 -5,-2c-1,0 -2.29291,-0.70711 -3,0c-0.70709,0.70711 0,2 0,5c0,3 0,5 0,6c0,2 0,4 0,5c0,1 1.38687,1.9176 4,3c0.92389,0.38269 1,-1 1,-3c0,-2 0,-4 0,-7c0,-2 -1.31,-2.33749 -4,-4c-1.203,-0.7435 -4,-2 -5,-2c-2,0 -3.29291,-1.70711 -4,-1c-0.70709,0.70711 0,3 0,6c0,2 2.15225,2.23463 4,3c1.30655,0.5412 3.0979,1.82443 5,3c1.70129,1.05147 3,0 3,-1c0,-1 0.29453,-3.34619 -2,-5c-1.814,-1.30745 -3,-1 -4,-1c-2,0 -5.58578,-1.41422 -7,0c-1.41422,1.41422 0,4 0,6c0,2 1.44806,2.42281 4,4c1.9021,1.17557 3.29871,3.05147 5,2c1.9021,-1.17557 2,-3 2,-6c0,-1 0.55048,-3.16516 0,-4c-4.19241,-6.35796 -12.58578,-5.41422 -14,-4c-0.70709,0.70711 0,2 0,3c0,3 0,6 0,7c0,3 -0.80392,5.29546 5,8c4.62186,2.15372 5.69345,2.4588 7,3c2.77164,1.14806 4,0 6,0c1,0 2,-2 2,-3c0,-2 0,-5 0,-7c0,-3 0.68927,-5.08025 0,-8c-0.51373,-2.17625 -4.92578,-4.49756 -10,-5c-0.99515,-0.09854 -2,0 -3,0c-1,0 -3,0 -4,0c-1,0 -1,2 -1,4c0,3 -1,5 -1,10c0,1 -0.54193,4.66446 3,7c4.49576,2.96448 8,2 11,2c1,0 3.07611,0.38269 4,0c2.61313,-1.0824 4.49347,-2.87856 5,-6c0.32037,-1.97418 0,-5 0,-7c0,-2 0,-5 0,-7c0,-1 -2,-2 -2,-3c0,-1 -1.90778,-2.49623 -6,-3c-0.99249,-0.12218 -2.69345,-0.4588 -4,-1c-1.84775,-0.76537 -6,-2 -8,-2c-2,0 -4.29291,-0.70711 -5,0c-0.70709,0.70711 -0.9176,1.38687 -2,4c-0.76538,1.84776 0,4 0,7c0,3 0,5 0,6c0,2 -0.06586,3.14429 2,4c2.92157,1.21014 8,3 9,3c1,0 2,0 5,0c2,0 4.07611,0.38269 5,0c1.30655,-0.5412 0.42282,-2.44804 2,-5c1.17557,-1.90211 2,-5 2,-7c0,-2 0,-4 0,-7c0,-1 0.47186,-2.11833 0,-3c-1.70129,-3.17892 -5.02676,-1.77025 -6,-2c-2.17624,-0.51375 -3,-1 -6,-1c-1,0 -3,0 -4,0c-1,0 -2.23462,2.15224 -3,4c-1.0824,2.61313 -2,3 -2,4c0,1 0.22977,3.02675 0,4c-0.51373,2.17625 -1,4 -1,6c0,2 -0.76538,3.15224 0,5c0.5412,1.30656 2.82376,2.48625 5,3c0.97324,0.22975 3,0 5,0c2,0 3,0 4,0c2,0 3.29291,0.70711 4,0c0.70709,-0.70711 0,-2 0,-4c0,-1 -1,-2 -3,-3l-3,0l-1,-2" id="svg_8" stroke-width="6" stroke="#000" fill="none"/>
  <path d="m392,114c-2,0 -3,0 -6,0c-1,0 -2,0 -6,0c-1,0 -5,0 -6,0c-6,0 -12,0 -18,0c-3,0 -7,0 -10,0c-4,0 -11,0 -16,0c-6,0 -12,0 -18,0c-4,0 -7,0 -8,0c-1,0 -2,0 -8,0l-9,0l-7,0l-3,0" id="svg_10" stroke-width="6" stroke="#000" fill="none"/>
 </g>

</svg>