<svg width="800" height="600" xmlns="http://www.w3.org/2000/svg">

 <g>
  <title>Layer 1</title>
  <path transform="rotate(15.1085 471 239.5)" stroke="#000" stroke-width="6" d="m470.70346,135.30457c0,1.94758 0.0085,7.01422 0.08087,14.60684c0.08644,9.06823 0.21447,19.83189 0.26958,29.21367c0.05596,9.52575 0.05392,21.42336 0.05392,31.16125c0,10.71168 0.04043,20.4192 0.05392,32.13504c0.02017,17.51305 0.01331,28.16987 0.05392,39.92536c0.0402,11.63572 0.02036,22.42693 0.05392,31.16125c0.02254,5.8671 0.02696,13.63305 0.02696,20.44957c0,3.89516 0,6.81652 0,7.79031l0,1.94758" id="svg_1" fill="none"/>
  <path transform="rotate(-22.2205 404 242.5)" d="m404,139c0,1 0,2 0,5c0,1 0,3 0,5c0,2 0,4 0,5c0,1 0,2 0,3c0,1 0,2 0,3c0,1 0,2 0,3c0,1 0,2 0,3c0,1 0,3 0,4c0,2 0,3 0,5c0,2 0,3 0,5c0,2 0,3 0,5c0,2 0,4 0,5c0,2 0,4 0,7c0,2 0,4 0,5c0,2 0,4 0,5c0,1 0,2 0,4c0,1 0,3 0,4c0,1 0,4 0,6c0,3 0,6 0,8c0,2 0,6 0,7c0,3 0,5 0,6c0,2 0,3 0,5c0,2 0,4 0,5c0,3 0,5 0,9c0,2 0,5 0,7c0,2 0,4 0,6c0,3 0,5 0,7c0,2 0,4 0,6c0,1 0,3 0,4c0,1 0,2 0,4c0,2 0,4 0,6c0,2 0,4 0,6c0,3 0,5 0,8c0,2 0,4 0,6c0,1 0,2 0,3c0,1 0,2 0,4c0,1 0,3 0,4c0,1 0,3 0,4c0,1 0,2 0,3c0,1 0,2 0,3c0,1 0,2 0,3l0,1" id="svg_2" stroke-width="6" stroke="#000" fill="none"/>
  <path stroke="#000" d="m555.26117,256.39504c0,1.75199 -0.7313,2.88456 0,3.50398c0.7313,0.61942 2.15148,1.14821 5.17118,1.75199c4.50149,0.90007 4.13694,0.876 4.13694,0c0,-0.876 -1.72602,-3.17129 -5.17118,-4.37998c-4.87216,-1.70934 -6.28413,-2.08723 -7.23965,-1.75199c-1.35131,0.47409 -1.03424,1.75199 -1.03424,3.50398c0,1.75199 -0.54376,3.63482 0,4.37998c1.21585,1.66625 4.13694,2.62799 6.20541,2.62799c2.06847,0 3.18142,0.33524 4.13694,0c1.35131,-0.47409 2.06847,-1.75199 2.06847,-2.62799c0,-1.75199 0.39579,-3.57067 0,-4.37998c-0.55973,-1.14455 -4.13694,-0.876 -6.20541,-1.75199c-2.06847,-0.876 -4.29141,-1.33653 -5.17118,-0.876c-1.96722,1.02979 -1.03424,3.50398 -1.03424,6.13197c0,2.62799 0,4.37998 0,7.00797c0,0.876 0.05536,2.22547 2.06847,2.62799c2.25078,0.45004 3.10271,0.876 6.20541,0.876c2.06847,0 3.40564,0.61942 4.13694,0c0.7313,-0.61942 0,-2.62799 0,-5.25598c0,-3.50398 0.2376,-6.15541 0,-7.00797c-0.53132,-1.90639 -3.40564,-2.00857 -4.13694,-2.62799c-1.4626,-1.23885 -3.28173,-0.129 -4.13694,0.876c-1.35219,1.58905 -1.64011,4.01713 -3.10271,5.25598c-1.4626,1.23885 -0.60473,3.66933 0,4.37998c3.82466,4.49452 9.21274,3.06269 13.44506,3.50398c3.07948,0.32109 4.13694,0 4.13694,-0.876c0,-1.75199 0.60473,-5.42132 0,-6.13197c-1.9123,-2.24725 -5.88834,-2.1539 -7.23965,-2.62799c-1.91104,-0.67046 -3.26014,0.67046 -5.17118,0c-1.35131,-0.47409 -2.37141,-1.49542 -3.10271,-0.876c-0.7313,0.61942 0,3.50398 0,5.25598c0,1.75199 -0.31708,3.0299 1.03424,3.50398c0.95552,0.33524 2.17244,0.67452 5.17118,0c8.05894,-1.81272 12.41083,-7.00797 12.41083,-7.88397c0,-0.876 0,-2.62799 0,-4.37998c0,-3.50398 -0.08301,-4.65219 -3.10271,-5.25598c-4.50149,-0.90007 -5.17118,-1.75199 -6.20541,-1.75199c-1.03424,0 -2.38207,-0.20205 -3.10271,0.876c-2.10098,3.14301 -1.03424,5.25598 -1.03424,7.88397c0,1.75199 -0.60473,2.79333 0,3.50398c3.82466,4.49452 7.39708,1.08154 9.30812,1.75199c1.35131,0.47409 3.57721,1.14455 4.13694,0c0.79158,-1.61863 1.46405,-3.81495 0,-6.13197c-1.75954,-2.78473 -5.17118,-3.50398 -8.27388,-3.50398c-1.03424,0 -2.14719,0.33524 -3.10271,0c-1.35131,-0.47409 -3.26014,-2.42245 -5.17118,-1.75199c-2.70256,0.94818 -2.06847,4.37998 -2.06847,6.13197c0,1.75199 -0.63649,4.56551 0,5.25598c2.62428,2.84685 7.35031,1.68104 11.37659,0.876c4.50149,-0.90007 7.23965,-6.13197 7.23965,-7.88397c0,-0.876 -0.08112,-1.56791 -3.10271,-2.62799c-2.13658,-0.7496 -3.26014,-0.20554 -5.17118,-0.876c-1.35131,-0.47409 -3.10271,-0.876 -5.17118,-0.876c-1.03424,0 -3.10271,0 -3.10271,0.876c0,1.75199 -2.06847,5.25598 -2.06847,7.00797c0,1.75199 -0.54376,2.75882 0,3.50398c1.21585,1.66625 6.07979,2.18426 9.30812,2.62799c4.08354,0.56128 10.12925,-1.82858 12.41083,-6.13197c0.94738,-1.78688 2.49684,-3.14113 1.03424,-4.37998c-2.92526,-2.47769 -6.20541,-1.75199 -8.27388,-1.75199c-3.10271,0 -5.17118,-0.876 -8.27388,-0.876c-2.06847,0 -8.43132,-2.42245 -10.34235,-1.75199c-1.35131,0.47409 -1.03424,3.50398 -1.03424,4.37998c0,0.876 -0.79158,1.88535 0,3.50398c0.55973,1.14455 3.41164,-0.04509 5.17118,0.876c1.96722,1.02979 2.14719,2.08723 3.10271,1.75199c1.35131,-0.47409 0,-0.876 -1.03424,-0.876c-1.03424,0 -2.06847,0 -3.10271,0c-1.03424,0 -2.58167,1.67122 -3.10271,5.25598c-0.12638,0.86943 -0.7313,3.76056 0,4.37998c1.4626,1.23885 3.49092,-0.82348 9.30812,-3.50398c2.87293,-1.32381 5.17118,-4.37998 5.17118,-6.13197c0,-0.876 0,-1.75199 -1.03424,-2.62799c-1.03424,-0.876 -3.7724,-1.72792 -8.27388,-2.62799c-2.01311,-0.40252 -4.43988,-0.61942 -5.17118,0c-1.4626,1.23885 0,4.37998 0,5.25598c0,0.876 0,1.75199 1.03424,1.75199c4.13694,0 8.66747,-1.54442 12.41083,-7.00797c2.32154,-3.38835 2.06847,-5.25598 2.06847,-7.88397c0,-0.876 0.7313,-2.88456 0,-3.50398c-2.19396,-1.85827 -5.17118,0 -8.27388,0c-2.06847,0 -4.52737,-1.02441 -6.20541,0c-2.6532,1.61973 -1.03424,4.37998 -1.03424,7.00797c0,2.62799 0,4.37998 0,6.13197c0,0.876 -1.4626,3.14113 0,4.37998c3.65656,3.09712 9.39113,1.47978 12.41083,0.876c2.25078,-0.45004 3.57721,-2.35944 4.13694,-3.50398c0.39579,-0.80931 -1.17178,-1.37488 -5.17118,-2.62799c-2.16897,-0.6796 -4.13694,-0.876 -6.20541,-1.75199c-2.06847,-0.876 -3.57721,-1.14455 -4.13694,0c-1.18738,2.42794 0,3.50398 0,4.37998c0,1.75199 2.06847,4.37998 4.13694,4.37998c4.13694,0 8.46913,0.51221 9.30812,0c5.30639,-3.23946 3.10271,-7.00797 3.10271,-8.75996c0,-1.75199 -3.14544,-2.49416 -7.23965,-3.50398c-6.28022,-1.54899 -11.67953,-2.37142 -12.41083,-1.75199c-1.4626,1.23885 0,6.13197 0,11.38795c0,3.50398 0,5.25598 0,6.13197c0,0.876 5.3372,2.08358 11.37659,0.876c4.50149,-0.90007 5.17118,-2.62799 5.17118,-3.50398c0,-0.876 -1.33326,-0.91865 -6.20541,-2.62799c-3.44516,-1.20869 -4.21566,-2.08723 -5.17118,-1.75199c-1.35131,0.47409 -1.03424,3.50398 -1.03424,5.25598c0,1.75199 -0.1823,3.05394 2.06847,3.50398c6.03939,1.20758 10.97019,-3.65792 13.44506,-7.88397c2.67977,-4.57588 3.10271,-5.25598 3.10271,-7.00797c0,-0.876 -0.90862,-2.18426 -4.13694,-2.62799c-2.04177,-0.28063 -3.10271,0 -4.13694,0c-1.03424,0 -1.03424,4.37998 -1.03424,8.75996c0,2.62799 -1.4626,4.01713 0,5.25598c1.4626,1.23885 4.13694,0 7.23965,0c1.03424,0 2.37141,0.61942 3.10271,0c2.92526,-2.47769 0,-6.13197 -1.03424,-8.75996l-5.17118,-1.75199l-4.13694,0" id="svg_4" stroke-width="6" fill="none"/>
 </g>
</svg>