<svg width="800" height="600" xmlns="http://www.w3.org/2000/svg">
 <g>
  <title>Layer 1</title>
  <path id="svg_81" d="m483,360" opacity="NaN" stroke-width="10" stroke="#000" fill="none"/>
  <line transform="rotate(-42.3139 221.5 250)" id="svg_1" y2="314" x2="201" y1="186" x1="242" stroke-width="10" stroke="#000" fill="none"/>
  <path transform="rotate(40.442 271 246.5)" id="svg_2" d="m247,182l48,129" opacity="undefined" stroke-width="10" stroke="#000" fill="none"/>
  <path d="m330,236c0,1 -1,1 -1,2c0,1 0.29291,2.29289 1,3c0.70709,0.70711 2,1 3,1c1,0 1.61731,-0.07613 2,-1c0.5412,-1.30656 2,-1 2,-2c0,-1 0.70709,-2.29289 0,-3c-0.70709,-0.70711 -1.29291,-0.29289 -2,-1c-0.70709,-0.70711 -2,0 -3,0c-1,0 -2,0 -4,0c-1,0 -2.29291,-0.70711 -3,0c-0.70709,0.70711 0,2 0,3c0,1 0.29291,1.29289 1,2c0.70709,0.70711 1,1 2,1c1,0 1.29291,0.29289 2,1c0.70709,0.70711 2.29291,0.29289 3,1c0.70709,0.70711 0.4588,1.69344 1,3c0.38269,0.92387 0,2 1,2c1,0 1.70709,1.29289 1,2c-0.70709,0.70711 -2,0 -3,0c-1,0 -1.29291,-0.29289 -2,-1c-0.70709,-0.70711 -1,-1 -2,-1c-1,0 -1.29291,-0.29289 -2,-1c-0.70709,-0.70711 -0.29291,-1.29289 -1,-2c-0.70709,-0.70711 -0.29291,-1.29289 -1,-2c-0.70709,-0.70711 0,-2 0,-3c0,-1 0.4588,-1.69344 1,-3c0.38269,-0.92387 1,-1 2,-1c1,0 2,0 3,0c1,0 2.29291,-0.70711 3,0c0.70709,0.70711 0,2 0,3c0,1 0,2 0,3c0,1 0,2 0,3c0,1 0,3 1,4l0,1" id="svg_5" stroke-width="10" stroke="#000" fill="none"/>
  <path d="m335,236c0,1 1,1 1,2c0,1 0,2 0,3c0,1 0,2 0,3c0,1 0,2 1,2c1,0 2,0 3,0c1,0 2,-1 2,-2c0,-1 0,-2 0,-3c0,-1 0,-2 -1,-2c-1,0 -1,1 -1,2l0,1l0,1l0,1" id="svg_6" stroke-width="10" stroke="#000" fill="none"/>
  <path d="m325,242c0,-1 0.4588,-1.69344 1,-3c0.38269,-0.92387 1.29291,-0.29289 2,-1c0.70709,-0.70711 0.29291,-1.29289 1,-2c0.70709,-0.70711 2.29291,0.70711 3,0c0.70709,-0.70711 1,-1 2,-1c1,0 2,-1 3,-1c1,0 2,0 3,0c1,0 1.29291,0.29289 2,1c0.70709,0.70711 0,2 0,3c0,1 0,2 0,3c0,1 0,2 0,3c0,1 0,2 0,3c0,1 0.30655,2.4588 -1,3c-0.92389,0.38269 -2,0 -3,0c-1,0 -2,0 -3,0c-1,0 -2,0 -3,0c-1,0 -1.29291,-0.29289 -2,-1c-0.70709,-0.70711 -2.29291,0.70711 -3,0c-0.70709,-0.70711 -0.29291,-1.29289 -1,-2c-0.70709,-0.70711 -1.29291,-0.29289 -2,-1c-0.70709,-0.70711 -1,-1 -1,-2c0,-1 0,-2 0,-3c0,-1 0,-2 0,-3c0,-1 0,-2 0,-3c0,-1 0.29291,-1.29289 1,-2c0.70709,-0.70711 2,0 3,0c1,0 2,0 3,0c1,0 2,0 3,0c1,0 1,1 1,2l0,1" id="svg_7" stroke-width="10" stroke="#000" fill="none"/>
 </g>

</svg>