<svg width="800" height="600" xmlns="http://www.w3.org/2000/svg">

 <g>
  <title>Layer 1</title>
  <path transform="rotate(15.1085 336 253.5)" stroke="#000" stroke-width="6" d="m335.70346,149.30457c0,1.94758 0.0085,7.01422 0.08087,14.60684c0.08644,9.06823 0.21447,19.83189 0.26958,29.21367c0.05596,9.52575 0.05392,21.42336 0.05392,31.16125c0,10.71168 0.04043,20.4192 0.05392,32.13504c0.02017,17.51305 0.01331,28.16987 0.05392,39.92536c0.0402,11.63572 0.02036,22.42693 0.05392,31.16125c0.02254,5.8671 0.02696,13.63305 0.02696,20.44957c0,3.89516 0,6.81652 0,7.79031l0,1.94758" id="svg_1" fill="none"/>
  <path transform="rotate(-22.2205 404 251.5)" d="m404,148c0,1 0,2 0,5c0,1 0,3 0,5c0,2 0,4 0,5c0,1 0,2 0,3c0,1 0,2 0,3c0,1 0,2 0,3c0,1 0,2 0,3c0,1 0,3 0,4c0,2 0,3 0,5c0,2 0,3 0,5c0,2 0,3 0,5c0,2 0,4 0,5c0,2 0,4 0,7c0,2 0,4 0,5c0,2 0,4 0,5c0,1 0,2 0,4c0,1 0,3 0,4c0,1 0,4 0,6c0,3 0,6 0,8c0,2 0,6 0,7c0,3 0,5 0,6c0,2 0,3 0,5c0,2 0,4 0,5c0,3 0,5 0,9c0,2 0,5 0,7c0,2 0,4 0,6c0,3 0,5 0,7c0,2 0,4 0,6c0,1 0,3 0,4c0,1 0,2 0,4c0,2 0,4 0,6c0,2 0,4 0,6c0,3 0,5 0,8c0,2 0,4 0,6c0,1 0,2 0,3c0,1 0,2 0,4c0,1 0,3 0,4c0,1 0,3 0,4c0,1 0,2 0,3c0,1 0,2 0,3c0,1 0,2 0,3l0,1" id="svg_2" stroke-width="6" stroke="#000" fill="none"/>
 </g>
</svg>