<svg width="800" height="600" xmlns="http://www.w3.org/2000/svg">
 <g>
  <title>Layer 1</title>
  <path fill="none" id="svg_2" d="m393,112c0,0.61878 0,1.23757 0,4.33149c0,2.47514 0,5.56906 0,9.28177c0,3.71271 0,7.42541 0,10.51934c0,3.09392 0,5.56906 0,8.66298c0,3.71271 0,8.0442 0,12.99448c0,4.33149 0,9.28177 0,19.18232c0,5.56906 0,12.99448 0,22.27624c0,6.18785 0,11.75691 0,15.46961c0,3.09392 0,8.0442 0,11.75691c0,3.71271 0,7.42541 0,12.99448c0,4.95028 0,9.90055 0,15.46961c0,4.95028 0,9.90055 0,15.46961c0,4.95028 0,9.28177 0,12.99448c0,2.47514 0,4.95028 0,8.0442c0,1.85635 0,4.33149 0,6.18785c0,0.61878 0,2.47514 0,3.09392c0,2.47514 0,3.09392 0,3.71271c0,1.23757 0,2.47514 0,4.95028c0,0.61878 0,3.09392 0,4.95028c0,1.85635 0,3.09392 0,4.95028c0,0.61878 0,1.23757 0,1.85635c0,0.61878 0,1.23757 0,1.85635c0,0.61878 0,1.23757 0,1.85635c0,1.23757 0,2.47514 0,3.09392c0,0.61878 0,1.23757 0,1.85635c0,0.61878 0,1.23757 0,2.47514c0,0.61878 0,1.23757 0,2.47514l0,0.61878l0,0.61878" stroke-width="6" stroke="#000"/>
  <path stroke="#000" stroke-width="6" d="m393,114.29208c-2,0 -4.15225,0.82125 -6,0c-1.30655,-0.58072 -2.01498,-0.81081 -4,-1.07302c-4.09222,-0.54056 -6.08582,-0.45113 -8,-1.07302c-3.45084,-1.12112 -6,-2.14604 -10,-2.14604c-1,0 -4,0 -5,0c-3,0 -8,0 -12,0c-4,0 -6.797,1.34825 -8,2.14604c-2.69,1.7839 -4,3.21906 -5,4.29208c-2,2.14604 -2.95517,3.80831 -4,7.51113c-0.86935,3.08094 -0.9725,4.98685 -2,9.65717c-0.91901,4.17725 0,7.51113 0,11.80321c0,2.14604 0,4.29208 0,5.3651c0,2.14604 0,6.43812 0,7.51113c0,3.21906 0,5.3651 0,6.43812c0,1.07302 0.47427,4.45234 1,5.3651c1.17557,2.04101 3,4.29208 5,6.43812c2,2.14604 4.06659,5.22599 10,8.58415c9.10651,5.15403 11,5.3651 11,6.43812c0,1.07302 1,1.07302 2,1.07302c2,0 3,1.07302 5,1.07302c1,0 3.82376,1.59478 6,2.14604c0.97324,0.24653 2.69345,1.56532 4,2.14604c0.92389,0.41063 2,0 3,0c2,0 3.87857,-0.52949 7,-1.07302c0.98709,-0.17188 0.85272,-1.25875 2,-2.14604c1.814,-1.40292 3,-1.07302 4,-1.07302l1,0l1,0l1,0" id="svg_4" fill="none"/>
 </g>

</svg>