<svg width="800" height="600" xmlns="http://www.w3.org/2000/svg">
 <g>
  <title>Layer 1</title>
  <path fill="none" stroke="#000" stroke-width="10" opacity="NaN" d="m483,360" id="svg_81"/>
  <path d="m512,227c-2,0 -5,0 -7,0c-2,0 -3,0 -8,0c-1,0 -2.54916,0.95517 -6,2c-0.95709,0.28978 -1.69345,2.4588 -3,3c-0.92389,0.38269 -2.0979,2.82443 -4,4c-0.85065,0.52573 -2,2 -2,3c0,1 -1,3 -1,4c0,1 0,2 0,3c0,2 0.4588,2.69344 1,4c0.38269,0.92387 1.4588,1.69344 2,3c0.38269,0.92387 2.186,2.69255 4,4c1.14728,0.8269 2.29291,1.29291 3,2c0.70709,0.70709 1.29291,0.29291 2,1c0.70709,0.70709 1.07611,0.61731 2,1c1.30655,0.5412 2.29291,1.29291 3,2c0.70709,0.70709 2,0 4,0c1,0 3,0 4,0c2,0 3,0 5,0c1,0 2,1 3,1c1,0 2,0 3,0c1,0 2,0 3,0c1,0 3,1 3,0c0,-1 -1.69342,0.4588 -3,1c-0.92389,0.38269 -2.01294,0.83981 -3,1c-3.12146,0.50653 -4.05353,1.5405 -6,2c-2.17624,0.51373 -2.69345,1.4588 -4,2c-0.92389,0.38269 -2.07611,-0.38269 -3,0c-1.30655,0.5412 -3,1 -4,2c-1,1 -2.07611,0.61731 -3,1c-1.30655,0.5412 -1.69345,1.4588 -3,2c-0.92389,0.38269 -0.69345,1.4588 -2,2c-0.92389,0.38269 -1,1 -2,2c-1,1 -2.48627,1.82376 -3,4c-0.22977,0.97324 -0.4588,1.69345 -1,3c-0.38269,0.92389 0,2 0,3c0,1 0,2 0,3c0,2 0,3 0,5c0,2 0.4588,2.69345 1,4c0.38269,0.92389 0,2 1,2c1,0 1.10339,0.90634 2,2c2.28589,2.78833 4.85272,4.1731 6,5c1.814,1.30746 3.29291,1.29291 4,2c0.70709,0.70709 0.82376,1.48627 3,2c0.97324,0.22977 1.69345,0.4588 3,1c0.92389,0.38269 2,0 3,0c1,0 2,0 3,0c1,0 2,0 3,0c1,0 3,0 4,0c1,0 2,0 3,0c1,0 1,-1 2,-1c1,0 1,-1 2,-1c1,0 2,0 3,-1l1,0l0,-1" id="svg_23" stroke-width="10" stroke="#000" fill="none"/>
  <line id="svg_24" y2="312" x2="407" y1="221" x1="405" stroke-width="10" stroke="#000" fill="none"/>
  <path d="m528,311c0,0 1,0 1,1l0,1" id="svg_25" stroke-width="10" stroke="#000" fill="none"/>
  <path d="m506,226c0,0 2.29291,-0.70711 3,0c0.70709,0.70711 1,1 2,1c1,0 2,0 3,0c1,0 2,0 3,0c1,0 2,0 3,0c1,0 2,0 3,0l1,0" id="svg_27" stroke-width="10" stroke="#000" fill="none"/>
  <line id="svg_28" y2="219" x2="400" y1="219" x1="474" stroke-width="10" stroke="#000" fill="none"/>
 </g>

</svg>