<svg width="800" height="600" xmlns="http://www.w3.org/2000/svg">
 <g>
  <title>Layer 1</title>
  <path fill="none" stroke="#000" stroke-width="10" opacity="NaN" d="m483,360" id="svg_81"/>
  <path stroke="#000" d="m259.69156,216c-0.88474,0 -3.43151,0.43343 -6.19318,0.87836c-3.49326,0.56279 -6.19318,0 -10.61688,0c-1.76948,0 -7.15104,-0.26838 -14.15584,1.75672c-2.68622,0.77659 -4.49309,1.57214 -7.07792,2.63508c-1.82775,0.75162 -5.49571,3.26234 -7.96266,5.27016c-0.96762,0.78753 -2.14355,3.02862 -3.53896,5.27016c-1.04007,1.67074 -3.90692,4.18194 -5.30844,7.02688c-1.22922,2.49518 -0.88474,5.27016 -0.88474,6.14852c0,3.51344 0,4.3918 0,7.02688c0,1.75672 -1.24395,3.07805 0.88474,7.02688c0.5904,1.09522 2.84149,2.38397 5.30844,4.3918c0.96762,0.78754 1.6879,1.31422 5.30844,1.75672c0.87811,0.10733 2.70155,-0.40361 4.4237,0c1.92542,0.45124 4.4237,0.87836 6.19318,0.87836c1.76948,0 3.53896,0 4.4237,0c1.76948,0 2.67706,0.2814 4.4237,0c2.76167,-0.44492 4.4237,-0.87836 6.19318,-0.87836c0.88474,0 2.65422,0.87836 2.65422,0c0,-0.87836 -1.76948,0 -2.65422,0c-1.76948,0 -4.49105,0.54222 -5.30844,0.87836c-1.15597,0.47537 -2.65422,0.87836 -4.4237,0.87836c-1.76948,0 -4.4237,1.75672 -6.19318,1.75672c-0.88474,0 -2.67789,1.5549 -3.53896,1.75672c-1.92542,0.45124 -4.15247,2.15971 -5.30844,2.63508c-0.81739,0.33614 -1.04931,0.6083 -2.65422,1.75672c-1.01503,0.72632 -2.19969,0.72356 -2.65422,2.63508c-0.40654,1.70973 -2.1754,4.12254 -2.65422,5.27016c-0.67715,1.62299 -0.62836,2.67277 -0.88474,3.51344c-0.9244,3.03107 -1.56621,3.53695 -1.76948,4.3918c-0.45453,1.91152 -0.88474,3.51344 -0.88474,4.3918c0,1.75672 0,2.63508 0,3.51344c0,0.87836 0.15314,1.62736 0.88474,2.63508c1.15675,1.59334 1.14387,2.89236 1.76948,3.51344c0.62561,0.62108 1.29066,0.6091 1.76948,1.75672c0.33858,0.81151 0.61273,1.04174 1.76948,2.63508c1.46319,2.01542 2.38299,3.03807 3.53896,3.51344c0.81739,0.33614 2.38299,2.15971 3.53896,2.63508c0.81739,0.33614 1.49825,0.40299 2.65422,0.87836c0.81739,0.33614 2.28775,-0.36383 3.53896,0.87836c0.62561,0.62108 1.63919,1.0304 2.65422,1.75672c1.60491,1.14842 2.9285,0.29644 5.30844,1.75672c1.06434,0.65306 3.56263,1.5549 4.4237,1.75672c1.92542,0.45124 2.67789,0.67654 3.53896,0.87836c1.92542,0.45124 3.53896,0.87836 4.4237,0.87836c0.88474,0 1.76948,0 4.4237,0c1.76948,0 2.65422,0 4.4237,0c0.88474,0 1.76948,0 2.65422,0c0.88474,0 2.02861,0.62108 2.65422,0c0.62561,-0.62108 0.88474,-0.87836 2.65422,-0.87836c0.88474,0 0.95209,-0.54222 1.76948,-0.87836c1.15597,-0.47537 1.76948,-0.87836 1.76948,-1.75672l0,-0.87836" id="svg_39" stroke-width="10" fill="none"/>
  <ellipse ry="35" rx="32" id="svg_40" cy="269" cx="311" stroke-width="10" stroke="#000" fill="none"/>
 </g>

</svg>