<svg width="800" height="600" xmlns="http://www.w3.org/2000/svg">
 <g>
  <title>Layer 1</title>
  <path fill="none" stroke="#000" stroke-width="10" opacity="NaN" d="m483,360" id="svg_81"/>
  <line stroke="#000" id="svg_32" y2="207" x2="302" y1="208" x1="380" stroke-width="10" fill="none"/>
  <line id="svg_33" y2="317" x2="378" y1="209" x1="375" stroke-width="10" stroke="#000" fill="none"/>
  <path d="m278,202c-1,0 -3.87856,0.49345 -7,1c-3.94835,0.64073 -7,0 -12,0c-2,0 -8.08264,-0.30554 -16,2c-3.03616,0.88414 -5.07843,1.78986 -8,3c-2.06586,0.85571 -6.21167,3.71413 -9,6c-1.09367,0.89659 -2.42281,3.44804 -4,6c-1.17557,1.90211 -4.41589,4.76108 -6,8c-1.38936,2.84073 -1,6 -1,7c0,4 0,5 0,8c0,2 -1.40601,3.50432 1,8c0.66731,1.24689 3.21167,2.71411 6,5c1.09367,0.89661 1.90779,1.49622 6,2c0.99251,0.12219 3.0535,-0.4595 5,0c2.17625,0.51373 5,1 7,1c2,0 4,0 5,0c2,0 3.02582,0.32037 5,0c3.12144,-0.50653 5,-1 7,-1c1,0 3,1 3,0c0,-1 -2,0 -3,0c-2,0 -5.07613,0.61731 -6,1c-1.30656,0.5412 -3,1 -5,1c-2,0 -5,2 -7,2c-1,0 -3.02675,1.77023 -4,2c-2.17625,0.51373 -4.69344,2.4588 -6,3c-0.92387,0.38269 -1.186,0.69254 -3,2c-1.14726,0.8269 -2.48625,0.82376 -3,3c-0.4595,1.9465 -2.4588,4.69345 -3,6c-0.76537,1.84775 -0.71022,3.04291 -1,4c-1.04483,3.45084 -1.77025,4.02676 -2,5c-0.51375,2.17624 -1,4 -1,5c0,2 0,3 0,4c0,1 0.1731,1.85272 1,3c1.30745,1.814 1.29289,3.29291 2,4c0.70711,0.70709 1.4588,0.69345 2,2c0.38269,0.92389 0.69255,1.186 2,3c1.65381,2.29453 2.69344,3.4588 4,4c0.92387,0.38269 2.69344,2.4588 4,3c0.92387,0.38269 1.69344,0.4588 3,1c0.92387,0.38269 2.58578,-0.41422 4,1c0.70711,0.70709 1.85274,1.1731 3,2c1.814,1.30746 3.31001,0.33749 6,2c1.203,0.7435 4.02675,1.77023 5,2c2.17625,0.51373 3.02675,0.77023 4,1c2.17625,0.51373 4,1 5,1c1,0 2,0 5,0c2,0 3,0 5,0c1,0 2,0 3,0c1,0 2.29289,0.70709 3,0c0.70711,-0.70709 1,-1 3,-1c1,0 1.07613,-0.61731 2,-1c1.30656,-0.5412 2,-1 2,-2l0,-1" id="svg_39" stroke-width="10" stroke="#000" fill="none"/>
 </g>

</svg>