<svg width="800" height="600" xmlns="http://www.w3.org/2000/svg">
 <g>
  <title>Layer 1</title>
  <path fill="none" stroke="#000" stroke-width="10" opacity="NaN" d="m483,360" id="svg_81"/>
  <line transform="rotate(-116.783 171.5 282.5)" stroke="#000" id="svg_8" y2="283" x2="228" y1="282" x1="115" stroke-width="10" fill="none"/>
  <line id="svg_12" y2="229" x2="147" y1="329" x1="101" stroke-width="10" stroke="#000" fill="none"/>
  <path stroke="#000" d="m273,236c-2.29043,0 -5.72608,0 -8.01651,0c-3.43565,0 -6.54148,0.99278 -12.59737,2.02273c-3.37365,0.57377 -9.19236,0.77899 -10.30694,1.01136c-2.49228,0.51957 -6.90193,2.80171 -8.01651,3.03409c-2.49228,0.51957 -3.08355,2.21085 -4.58086,4.04545c-1.89397,2.3206 -3.23458,2.12174 -4.58086,4.04545c-0.60207,0.86031 0,2.02273 0,4.04545c0,3.03409 0,5.05682 0,8.09091c0,1.01136 -0.87651,3.18807 0,5.05682c0.61979,1.3214 -0.5407,4.81808 4.58086,7.07955c1.02431,0.45229 3.52283,1.63569 4.58086,2.02273c1.4963,0.54735 3.2338,2.51452 5.72608,3.03409c2.22917,0.46472 5.52423,1.50316 8.01651,2.02273c3.34375,0.6971 5.52423,0.49179 8.01651,1.01136c1.11458,0.23238 2.29043,0 3.43565,0c1.14522,0 0,0 -1.14522,0c-4.58086,0 -5.72608,0 -8.01651,0c-5.72608,0 -8.01651,0 -9.16172,0c-2.29043,0 -4.58086,0 -9.16172,2.02273c-2.29043,1.01136 -6.20576,1.43498 -8.01651,3.03409c-1.81075,1.59911 -2.29043,3.03409 -3.43565,4.04545c-1.14522,1.01136 -1.14522,3.03409 -1.14522,4.04545c0,1.01136 -1.14522,5.05682 -1.14522,7.07955c0,1.01136 0,3.03409 0,5.05682c0,2.02273 -0.52623,3.0882 0,5.05682c0.58835,2.20097 2.29043,3.03409 3.43565,4.04545c2.29043,2.02273 4.58086,3.03409 6.87129,4.04545c4.58086,2.02273 5.587,2.5218 9.16172,3.03409c2.26086,0.32401 3.50958,-0.81 9.16172,0c3.57473,0.51229 5.72608,1.01136 9.16172,1.01136c1.14522,0 2.29043,0 3.43565,0c1.14522,0 2.29043,0 3.43565,0c1.14522,0 2.29043,0 3.43565,0l1.14522,0" id="svg_27" stroke-width="10" fill="none"/>
 </g>

</svg>